<?xml version="1.0" encoding="UTF-8"?>
<svg id="Layer_1" data-name="Layer 1" xmlns="http://www.w3.org/2000/svg" viewBox="0 0 960 960">
  <defs>
    <style>
      .cls-1 {
        fill: #306bea;
        stroke-width: 0px;
      }
    </style>
  </defs>
  <path class="cls-1" d="M358.3,415.57v23.84h-64.21v25.94h59.1v24.01h-59.1v50.03h-30.84v-123.83h95.05Z"/>
  <path class="cls-1" d="M377.86,415.41h26.65v21.01h-26.65v-21.01ZM377.86,447.69h26.65v91.72h-26.65v-91.72Z"/>
  <path class="cls-1" d="M417.64,447.86h28.43c11.24,40.68,13.17,49.01,16.14,66.52,3.67-20.34,4.2-22.61,9.67-44.19l5.6-22.44h27.71l-29.65,91.56h-28.25l-29.66-91.45Z"/>
  <path class="cls-1" d="M603.5,516.05c-3.11,5-6.82,9.6-11.07,13.69-9.45,8.55-21.81,13.2-34.55,12.99-27.21,0-46.32-17.51-46.32-47.37,0-22.09,10.89-50.52,47.02-50.52,12.34-.38,24.29,4.38,32.98,13.17,11.94,12.82,12.64,30.7,12.99,41.03h-65.4c-.17,11.42,6.3,22.79,21.01,22.79s19.81-9.67,23.14-16.14l20.19,10.36ZM576.64,482.2c-.22-4.76-2.01-9.33-5.07-12.99-3.57-3.32-8.28-5.14-13.17-5.07-5.2-.02-10.16,2.14-13.69,5.95-2.92,3.45-4.79,7.64-5.42,12.12h37.35Z"/>
  <path class="cls-1" d="M626.74,421.35h26.86v28.6h17.71v16.49h-17.89v41.2c0,5.6,0,10.51,7,10.51l9.67-.35v21.01c-4.69.86-9.44,1.33-14.21,1.4-9.32,0-19.46-.52-25.24-8.97-3.67-5.42-3.85-11.94-3.85-20.69v-44.29h-13.35v-16.51h13.34l-.03-28.4Z"/>
  <path class="cls-1" d="M715.99,457.31c5.95-5.07,12.47-9.1,26.46-10.51v23.95l-8.93,1.4c-12.99,2.27-16.84,4.2-16.84,15.79v51.46h-26.86v-91.72h26.3l-.14,9.62Z"/>
  <path class="cls-1" d="M756.61,473.8c-.11-7.92,3.46-15.43,9.67-20.34,8.4-6.65,19.29-8.05,30-8.05,11.24,0,38.51,2.62,38.51,26.29v53.32c0,9.84.52,11.24,2.62,14.39h-26.47v-8.44c-7,5.07-14.56,10.89-28,10.89-21.01,0-30-15.09-30-28,0-14.74,11.77-23.14,19.29-26.29,7.52-3.15,24.71-6.3,36.13-8.4v-4.9c-.35-4.2-.7-11.24-10.51-11.24-11.94,0-13.52,7.35-14.21,10.72l-27.04.06ZM790.82,501.36c-4.55,1.75-11.59,4.37-11.59,11.42.28,5.39,4.87,9.54,10.26,9.27,3.32-.09,6.55-1.12,9.32-2.97,8.93-5.6,9.27-14.01,9.49-23.49l-17.47,5.77Z"/>
  <path class="cls-1" d="M883.58,456.09c2.47-3.05,5.59-5.5,9.14-7.17,5.27-2.23,10.94-3.42,16.66-3.5,5.65-.12,11.26,1.15,16.3,3.67,9.67,5.07,12.13,13.34,12.13,27.56v62.78h-26.82v-51.57c0-8.22-.17-11.24-1.22-13.69-2.19-4.63-7.02-7.42-12.13-7-14.2,0-14.2,11.42-14.2,22.79v49.47h-26.92v-91.39h27.2l-.14,8.05Z"/>
  <path class="cls-1" d="M147.9,479.08h25.57c2.04.04,3.73-1.58,3.78-3.62.01-.52-.08-1.04-.29-1.52l-44.01-119.77c-.53-1.46-1.92-2.45-3.48-2.44h-25.67c-2.04-.01-3.7,1.63-3.71,3.68,0,.45.07.88.23,1.29l43.99,119.93c.54,1.5,1.98,2.48,3.58,2.44Z"/>
  <path class="cls-1" d="M143.28,606.41h25.57c2.04.01,3.7-1.63,3.71-3.68,0-.45-.07-.88-.23-1.29l-90.74-247.26c-.53-1.46-1.92-2.44-3.49-2.44h-25.54c-2.04-.01-3.7,1.63-3.71,3.68,0,.45.07.88.23,1.29l90.72,247.28c.54,1.45,1.93,2.42,3.48,2.42Z"/>
  <path class="cls-1" d="M92.94,606.41h25.57c2.04.1,3.77-1.49,3.86-3.52.02-.5-.05-.99-.22-1.45l-44.15-119.93c-.53-1.46-1.92-2.45-3.48-2.44h-25.7c-2.04.05-3.65,1.75-3.6,3.79.01.41.1.83.24,1.22l43.99,119.93c.54,1.44,1.93,2.41,3.48,2.41Z"/>
  <path class="cls-1" d="M150.99,356.75l20.63,56.1c.53,1.46,1.92,2.45,3.48,2.44h25.57c2.04.01,3.7-1.63,3.71-3.68,0-.45-.07-.88-.23-1.29l-20.63-56.13c-.53-1.46-1.92-2.45-3.48-2.44h-25.57c-2.04-.01-3.71,1.62-3.72,3.67,0,.46.07.91.24,1.34Z"/>
  <path class="cls-1" d="M45.76,606.42h25.57c2.04.01,3.7-1.63,3.71-3.68,0-.45-.07-.88-.23-1.29l-20.75-56.25c-.53-1.46-1.92-2.45-3.48-2.44h-25.54c-2.04-.01-3.71,1.62-3.72,3.67,0,.46.07.91.24,1.34l20.63,56.25c.54,1.48,1.98,2.45,3.57,2.41Z"/>
</svg>