<?xml version="1.0" encoding="UTF-8"?>
<svg version="1.1" xmlns="http://www.w3.org/2000/svg" width="168" height="90">
<path d="M0 0 C55.44 0 110.88 0 168 0 C168 29.7 168 59.4 168 90 C112.56 90 57.12 90 0 90 C0 60.3 0 30.6 0 0 Z " fill="#B2D2E0" transform="translate(0,0)"/>
<path d="M0 0 C55.44 0 110.88 0 168 0 C168 29.7 168 59.4 168 90 C112.56 90 57.12 90 0 90 C0 60.3 0 30.6 0 0 Z M22 24.625 C21.21101318 25.1509375 20.42202637 25.676875 19.60913086 26.21875 C13.53548653 30.3715809 8.10767571 34.83848643 4 41 C3.45832154 45.82505594 3.45832154 45.82505594 5.43359375 50.08984375 C9.15297356 52.85814927 12.94048404 53.28114481 17.4375 54.125 C31.77460479 57.14948828 44.41751172 63.65738891 57 71 C56.195625 71.309375 55.39125 71.61875 54.5625 71.9375 C52.10919595 72.76335345 52.10919595 72.76335345 51 74 C50.67 73.34 50.34 72.68 50 72 C46.04 72 42.08 72 38 72 C38 72.99 38 73.98 38 75 C38.99 75 39.98 75 41 75 C40.505 76.98 40.505 76.98 40 79 C39.4225 78.01 38.845 77.02 38.25 76 C37.5075 75.01 36.765 74.02 36 73 C34.68 73 33.36 73 32 73 C32 77.29 32 81.58 32 86 C33.65 86 35.3 86 37 86 C37 85.34 37 84.68 37 84 C36.34 84 35.68 84 35 84 C35.33 82.35 35.66 80.7 36 79 C36.38478516 79.75796875 36.38478516 79.75796875 36.77734375 80.53125 C38.04080542 82.67530617 39.15485404 84.31914786 41 86 C44.08355042 86.61361622 46.89810712 86.42575 50 86 C50 85.34 50 84.68 50 84 C49.34 84 48.68 84 48 84 C48.495 82.515 48.495 82.515 49 81 C50.32 81.33 51.64 81.66 53 82 C53.33 81.34 53.66 80.68 54 80 C54.33 81.32 54.66 82.64 55 84 C54.34 84 53.68 84 53 84 C53 84.66 53 85.32 53 86 C56.3 86 59.6 86 63 86 C62.67 84.68 62.34 83.36 62 82 C63.65 82 65.3 82 67 82 C66.505 83.98 66.505 83.98 66 86 C70.29 86 74.58 86 79 86 C79 84.68 79 83.36 79 82 C79.99 81.34 80.98 80.68 82 80 C82.2502157 76.91634129 82.2502157 76.91634129 82 74 C79.71294169 72.85647084 78.40735238 72.89665561 75.875 72.9375 C74.59625 72.958125 73.3175 72.97875 72 73 C72.495 78.445 72.495 78.445 73 84 C72.01 84 71.02 84 70 84 C69.49818809 82.52144705 68.99859924 81.04213942 68.5 79.5625 C68.2215625 78.73878906 67.943125 77.91507812 67.65625 77.06640625 C67 75 67 75 67 74 C67.99 74.33 68.98 74.66 70 75 C70 74.01 70 73.02 70 72 C71.95917659 72.0868748 73.91741871 72.19504512 75.875 72.3125 C76.96554688 72.37050781 78.05609375 72.42851563 79.1796875 72.48828125 C80.57574219 72.74158203 80.57574219 72.74158203 82 73 C82.99 74.485 82.99 74.485 84 76 C88.17660573 76.26518132 91.04340734 76.31886422 95 75 C94.9175 75.886875 94.835 76.77375 94.75 77.6875 C95.06521049 81.86403904 95.958562 83.15105808 99 86 C101.81239326 86.37398847 103.97592155 86.48293015 106.75 86.3125 C107.44738281 86.28994141 108.14476563 86.26738281 108.86328125 86.24414062 C110.57644935 86.18547048 112.28850623 86.09579256 114 86 C114.33 85.34 114.66 84.68 115 84 C114.34 84 113.68 84 113 84 C113 83.01 113 82.02 113 81 C114.46484375 82.30208333 115.9296875 83.60416667 117.39453125 84.90625 C119.089448 86.28151241 119.089448 86.28151241 122 86 C122 85.34 122 84.68 122 84 C121.505 83.505 121.01 83.01 120.5 82.5 C120.005 82.005 119.51 81.51 119 81 C119 80.34 119 79.68 119 79 C119.66 78.67 120.32 78.34 121 78 C121.33 77.67 121.66 77.34 122 77 C122.103125 78.11375 122.20625 79.2275 122.3125 80.375 C122.539375 81.57125 122.76625 82.7675 123 84 C126.45662331 86.30441554 127.94857881 86.25860135 132 86 C134.33075929 85.04134491 134.33075929 85.04134491 136 82 C136.06282845 79.50942702 136.06282845 79.50942702 135.6875 76.875 C135.58824219 75.98554687 135.48898438 75.09609375 135.38671875 74.1796875 C135.21971516 72.02881235 135.21971516 72.02881235 134 71 C129.77509324 70.55437089 126.15544948 70.32363933 122.4375 72.5 C121.963125 72.995 121.48875 73.49 121 74 C120.34 73.34 119.68 72.68 119 72 C116.31160615 71.73008094 113.70858064 71.91262643 111 72 C114.40404125 68.30834956 118.5308442 66.36454788 122.9375 64.0625 C123.79633789 63.61374512 124.65517578 63.16499023 125.54003906 62.70263672 C133.14022213 58.80536345 140.66128424 56.11305784 148.921875 53.98828125 C149.59831055 53.81280762 150.27474609 53.63733398 150.97167969 53.45654297 C152.89388905 52.96465357 154.82183087 52.49532647 156.75 52.02734375 C159.82807148 51.0543476 161.69840763 50.23406399 164 48 C164.79424325 44.11703298 164.13614142 42.2621983 162.3125 38.75 C157.90726653 33.13548675 151.76543739 29.10589941 146 25 C145.10498779 24.35877197 145.10498779 24.35877197 144.19189453 23.70458984 C102.17079962 -6.11646728 64.01921045 -3.66758192 22 24.625 Z " fill="#2A0D45" transform="translate(0,0)"/>
<path d="M0 0 C2.52475802 1.94848227 5.01912491 3.93268134 7.50463867 5.9309082 C8.40182617 6.62700195 9.29901367 7.3230957 10.22338867 8.0402832 C13.9873858 11.15976027 16.16642351 14.23983241 17.12963867 19.0559082 C16.50463867 21.9309082 16.50463867 21.9309082 14.05151367 23.9699707 C10.028474 26.48511375 5.72272922 27.23043152 1.12963867 28.1809082 C-7.96234834 30.24916428 -15.64921856 33.5011013 -23.77807617 37.99829102 C-27.04310446 39.7714511 -30.42069866 41.32263855 -33.77270508 42.9230957 C-35.66827597 43.82158109 -35.66827597 43.82158109 -36.49536133 45.9309082 C-34.50968424 45.86580404 -32.52400716 45.80069987 -30.53833008 45.7355957 C-28.49536133 45.9309082 -28.49536133 45.9309082 -25.49536133 47.9309082 C-25.09575195 47.44106445 -24.69614258 46.9512207 -24.28442383 46.4465332 C-22.00314404 44.51392063 -20.8169607 44.58492777 -17.87036133 44.6809082 C-17.0737207 44.69637695 -16.27708008 44.7118457 -15.45629883 44.7277832 C-13.49536133 44.9309082 -13.49536133 44.9309082 -12.49536133 45.9309082 C-10.66243038 54.53158421 -10.66243038 54.53158421 -13.05786133 58.5559082 C-16.19906722 60.3278705 -17.93988645 60.52348735 -21.49536133 59.9309082 C-23.87036133 58.2434082 -23.87036133 58.2434082 -25.49536133 55.9309082 C-25.74536133 53.1809082 -25.74536133 53.1809082 -25.49536133 50.9309082 C-25.82536133 51.2609082 -26.15536133 51.5909082 -26.49536133 51.9309082 C-27.48536133 52.4259082 -27.48536133 52.4259082 -28.49536133 52.9309082 C-28.14749425 54.90627565 -28.14749425 54.90627565 -27.49536133 56.9309082 C-26.83536133 57.2609082 -26.17536133 57.5909082 -25.49536133 57.9309082 C-25.49536133 58.5909082 -25.49536133 59.2509082 -25.49536133 59.9309082 C-29.3666816 59.35737927 -31.57708929 57.44386468 -34.49536133 54.9309082 C-34.49536133 55.9209082 -34.49536133 56.9109082 -34.49536133 57.9309082 C-33.83536133 58.2609082 -33.17536133 58.5909082 -32.49536133 58.9309082 C-34.48003295 60.91557983 -38.10828414 60.25035096 -40.80786133 60.3059082 C-41.82396484 60.36198242 -41.82396484 60.36198242 -42.8605957 60.41918945 C-46.63520325 60.48560484 -48.17145067 60.23531236 -50.96020508 57.61450195 C-52.76176102 54.46521714 -52.82761893 52.5026774 -52.49536133 48.9309082 C-53.98036133 49.4259082 -53.98036133 49.4259082 -55.49536133 49.9309082 C-58.25886853 50.21546736 -60.68902772 50.10908811 -63.49536133 49.9309082 C-64.15536133 48.9409082 -64.81536133 47.9509082 -65.49536133 46.9309082 C-68.38132079 46.34609699 -68.38132079 46.34609699 -71.62036133 46.2434082 C-72.71606445 46.17766602 -73.81176758 46.11192383 -74.94067383 46.04418945 C-75.7837207 46.00680664 -76.62676758 45.96942383 -77.49536133 45.9309082 C-77.49536133 46.9209082 -77.49536133 47.9109082 -77.49536133 48.9309082 C-78.98036133 48.4359082 -78.98036133 48.4359082 -80.49536133 47.9309082 C-80.18598633 48.8384082 -79.87661133 49.7459082 -79.55786133 50.6809082 C-78.76813503 53.09654158 -78.06586836 55.45871106 -77.49536133 57.9309082 C-76.50536133 57.9309082 -75.51536133 57.9309082 -74.49536133 57.9309082 C-74.82536133 54.3009082 -75.15536133 50.6709082 -75.49536133 46.9309082 C-67.74536133 46.8059082 -67.74536133 46.8059082 -65.49536133 47.9309082 C-65.24536133 50.7434082 -65.24536133 50.7434082 -65.49536133 53.9309082 C-67.49536133 55.8059082 -67.49536133 55.8059082 -69.49536133 56.9309082 C-69.16536133 57.9209082 -68.83536133 58.9109082 -68.49536133 59.9309082 C-72.78536133 59.9309082 -77.07536133 59.9309082 -81.49536133 59.9309082 C-81.00036133 57.9509082 -81.00036133 57.9509082 -80.49536133 55.9309082 C-82.14536133 55.9309082 -83.79536133 55.9309082 -85.49536133 55.9309082 C-85.16536133 57.2509082 -84.83536133 58.5709082 -84.49536133 59.9309082 C-87.79536133 59.9309082 -91.09536133 59.9309082 -94.49536133 59.9309082 C-94.49536133 59.2709082 -94.49536133 58.6109082 -94.49536133 57.9309082 C-93.83536133 57.9309082 -93.17536133 57.9309082 -92.49536133 57.9309082 C-92.82536133 56.6109082 -93.15536133 55.2909082 -93.49536133 53.9309082 C-93.82536133 54.5909082 -94.15536133 55.2509082 -94.49536133 55.9309082 C-95.81536133 55.6009082 -97.13536133 55.2709082 -98.49536133 54.9309082 C-98.99036133 56.4159082 -98.99036133 56.4159082 -99.49536133 57.9309082 C-98.83536133 57.9309082 -98.17536133 57.9309082 -97.49536133 57.9309082 C-97.49536133 58.5909082 -97.49536133 59.2509082 -97.49536133 59.9309082 C-100.59725421 60.35665821 -103.41181091 60.54452442 -106.49536133 59.9309082 C-108.73622177 57.88957643 -110.12961842 55.62121584 -111.49536133 52.9309082 C-111.82536133 54.5809082 -112.15536133 56.2309082 -112.49536133 57.9309082 C-111.83536133 57.9309082 -111.17536133 57.9309082 -110.49536133 57.9309082 C-110.49536133 58.5909082 -110.49536133 59.2509082 -110.49536133 59.9309082 C-112.14536133 59.9309082 -113.79536133 59.9309082 -115.49536133 59.9309082 C-115.49536133 55.6409082 -115.49536133 51.3509082 -115.49536133 46.9309082 C-114.17536133 46.9309082 -112.85536133 46.9309082 -111.49536133 46.9309082 C-109.24536133 49.9309082 -109.24536133 49.9309082 -107.49536133 52.9309082 C-107.00036133 50.9509082 -107.00036133 50.9509082 -106.49536133 48.9309082 C-107.48536133 48.9309082 -108.47536133 48.9309082 -109.49536133 48.9309082 C-109.49536133 47.9409082 -109.49536133 46.9509082 -109.49536133 45.9309082 C-105.53536133 45.9309082 -101.57536133 45.9309082 -97.49536133 45.9309082 C-97.16536133 46.5909082 -96.83536133 47.2509082 -96.49536133 47.9309082 C-95.83536133 47.2709082 -95.17536133 46.6109082 -94.49536133 45.9309082 C-92.37036133 45.3059082 -92.37036133 45.3059082 -90.49536133 44.9309082 C-94.07056938 42.99880543 -97.65689247 41.08825259 -101.24536133 39.1809082 C-102.24180664 38.64208008 -103.23825195 38.10325195 -104.26489258 37.5480957 C-114.66848477 32.04425983 -124.91461455 28.81409909 -136.46411133 26.8371582 C-139.8953033 25.81133792 -141.30536013 24.72953206 -143.49536133 21.9309082 C-144.30786133 18.8059082 -144.30786133 18.8059082 -143.49536133 14.9309082 C-137.6764115 6.70855686 -129.77466286 1.18378619 -121.43286133 -4.1940918 C-120.22647514 -4.98387758 -119.02009498 -5.77367258 -117.8137207 -6.56347656 C-106.11569173 -14.16237079 -94.37336789 -21.36935097 -80.49536133 -24.0690918 C-79.60848633 -24.24956055 -78.72161133 -24.4300293 -77.80786133 -24.6159668 C-48.39228315 -28.63979589 -23.04958482 -17.46852553 0 0 Z M-98.49536133 -13.0690918 C-100.01129883 -12.5740918 -100.01129883 -12.5740918 -101.55786133 -12.0690918 C-104.52495148 -11.05901856 -106.06592274 -9.99835185 -108.49536133 -8.0690918 C-110.6141258 -6.77656367 -112.74445308 -5.50712382 -114.88598633 -4.25268555 C-115.68262695 -3.66680664 -115.68262695 -3.66680664 -116.49536133 -3.0690918 C-116.49536133 -2.4090918 -116.49536133 -1.7490918 -116.49536133 -1.0690918 C-117.36161133 -0.9453418 -117.36161133 -0.9453418 -118.24536133 -0.8190918 C-120.66306643 -0.1995291 -120.66306643 -0.1995291 -122.49536133 1.9309082 C-124.57730163 4.0128485 -125.63994262 4.52299124 -128.49536133 4.9309082 C-127.79992693 7.93474874 -127.79992693 7.93474874 -126.49536133 10.9309082 C-124.71822601 12.18786087 -124.71822601 12.18786087 -122.49536133 11.9309082 C-118.79776955 10.16227232 -118.79776955 10.16227232 -116.49536133 6.9309082 C-115.50536133 6.6009082 -114.51536133 6.2709082 -113.49536133 5.9309082 C-113.16536133 5.6009082 -112.83536133 5.2709082 -112.49536133 4.9309082 C-111.50536133 4.6009082 -110.51536133 4.2709082 -109.49536133 3.9309082 C-109.16536133 3.2709082 -108.83536133 2.6109082 -108.49536133 1.9309082 C-108.16536133 2.9209082 -107.83536133 3.9109082 -107.49536133 4.9309082 C-108.50598633 5.52258789 -109.51661133 6.11426758 -110.55786133 6.72387695 C-111.8709393 7.52110286 -113.18340822 8.31933252 -114.49536133 9.1184082 C-115.49696289 9.69945312 -115.49696289 9.69945312 -116.51879883 10.29223633 C-118.69726236 11.58302077 -118.69726236 11.58302077 -121.49536133 13.9309082 C-122.19906737 17.69133735 -121.19775803 19.6325146 -119.49536133 22.9309082 C-119.49536133 24.2509082 -119.49536133 25.5709082 -119.49536133 26.9309082 C-118.50536133 26.9309082 -117.51536133 26.9309082 -116.49536133 26.9309082 C-115.83536133 25.9409082 -115.17536133 24.9509082 -114.49536133 23.9309082 C-105.34674513 26.51085192 -96.55768692 29.7402666 -87.74462891 33.28833008 C-86.87862061 33.62928711 -86.0126123 33.97024414 -85.12036133 34.3215332 C-84.34950195 34.63123047 -83.57864258 34.94092773 -82.78442383 35.26000977 C-80.25998976 35.99989296 -78.11109197 35.97472843 -75.49536133 35.9309082 C-75.16536133 36.2609082 -74.83536133 36.5909082 -74.49536133 36.9309082 C-57.46487704 39.49402457 -43.06817169 35.12378943 -27.60083008 28.21606445 C-24.31002483 26.8542092 -22.01893302 26.67308588 -18.49536133 26.9309082 C-18.49536133 27.9209082 -18.49536133 28.9109082 -18.49536133 29.9309082 C-17.50536133 29.6009082 -16.51536133 29.2709082 -15.49536133 28.9309082 C-16.48536133 26.4559082 -16.48536133 26.4559082 -17.49536133 23.9309082 C-13.86536133 23.2709082 -10.23536133 22.6109082 -6.49536133 21.9309082 C-6.49536133 23.2509082 -6.49536133 24.5709082 -6.49536133 25.9309082 C-5.50536133 25.9309082 -4.51536133 25.9309082 -3.49536133 25.9309082 C-3.49536133 24.6109082 -3.49536133 23.2909082 -3.49536133 21.9309082 C-0.03036133 21.4359082 -0.03036133 21.4359082 3.50463867 20.9309082 C3.50463867 19.9409082 3.50463867 18.9509082 3.50463867 17.9309082 C4.45338867 17.9721582 5.40213867 18.0134082 6.37963867 18.0559082 C9.60708723 18.28064638 9.60708723 18.28064638 11.50463867 15.9309082 C10.84463867 15.2709082 10.18463867 14.6109082 9.50463867 13.9309082 C8.91295898 13.1471582 8.3212793 12.3634082 7.71166992 11.5559082 C5.40663098 8.81433977 3.11807849 6.98361846 0.19213867 4.9309082 C-0.77336914 4.25157227 -1.73887695 3.57223633 -2.73364258 2.87231445 C-3.64500977 2.23165039 -4.55637695 1.59098633 -5.49536133 0.9309082 C-6.21079102 0.38305664 -6.9262207 -0.16479492 -7.66333008 -0.72924805 C-9.21810007 -1.91935983 -10.85058314 -3.00683922 -12.49536133 -4.0690918 C-13.98036133 -3.5740918 -13.98036133 -3.5740918 -15.49536133 -3.0690918 C-15.49536133 -4.0590918 -15.49536133 -5.0490918 -15.49536133 -6.0690918 C-38.87383559 -23.6029475 -73.03743657 -28.62671248 -98.49536133 -13.0690918 Z " fill="#81BBD5" transform="translate(147.495361328125,26.069091796875)"/>
<path d="M0 0 C15.49040568 -0.52988845 28.56672231 3.69548994 41.92578125 11.1953125 C42.87195313 11.7109375 43.818125 12.2265625 44.79296875 12.7578125 C46.84876696 13.88497912 48.89255637 15.02809081 50.92578125 16.1953125 C50.92578125 17.1853125 50.92578125 18.1753125 50.92578125 19.1953125 C52.24578125 19.1953125 53.56578125 19.1953125 54.92578125 19.1953125 C59.41189635 21.86591417 63.53504165 25.08324547 67.67578125 28.2578125 C68.25199219 28.69158203 68.82820313 29.12535156 69.421875 29.57226562 C73.16877403 32.4413946 75.31983156 35.28638796 77.92578125 39.1953125 C74.96913606 40.6736351 72.18348388 40.25564033 68.92578125 40.1953125 C69.25578125 41.1853125 69.58578125 42.1753125 69.92578125 43.1953125 C66.46078125 43.6903125 66.46078125 43.6903125 62.92578125 44.1953125 C62.92578125 45.5153125 62.92578125 46.8353125 62.92578125 48.1953125 C61.93578125 48.1953125 60.94578125 48.1953125 59.92578125 48.1953125 C59.92578125 46.8753125 59.92578125 45.5553125 59.92578125 44.1953125 C56.29578125 44.8553125 52.66578125 45.5153125 48.92578125 46.1953125 C49.91578125 48.6703125 49.91578125 48.6703125 50.92578125 51.1953125 C49.44078125 51.6903125 49.44078125 51.6903125 47.92578125 52.1953125 C47.92578125 51.2053125 47.92578125 50.2153125 47.92578125 49.1953125 C42.60231608 48.81328536 38.81706516 50.10590656 33.98828125 52.0703125 C29.01049202 54.05006121 24.10301537 55.80481677 18.92578125 57.1953125 C19.30089844 56.7828125 19.67601562 56.3703125 20.0625 55.9453125 C26.76024103 48.38715638 31.06219347 42.21276066 31.11328125 31.8828125 C31.12746094 30.58730469 31.14164063 29.29179688 31.15625 27.95703125 C31.09523528 24.20954037 31.09523528 24.20954037 29.7890625 20.90234375 C29.50417969 20.00902344 29.21929687 19.11570312 28.92578125 18.1953125 C29.58578125 17.2053125 30.24578125 16.2153125 30.92578125 15.1953125 C29.55286257 14.71021457 28.17731422 14.23255737 26.80078125 13.7578125 C26.03507812 13.49097656 25.269375 13.22414063 24.48046875 12.94921875 C17.51584868 10.89391038 10.51993187 10.94312731 3.31494141 10.90014648 C1.32691263 10.88303739 -0.66082727 10.83915652 -2.6484375 10.79492188 C-11.27977564 10.73876202 -18.06336934 12.08279171 -26.07421875 15.1953125 C-27.40129845 15.55273151 -28.73280452 15.89615241 -30.07421875 16.1953125 C-31.42861543 13.48651915 -31.13923326 11.18597982 -31.07421875 8.1953125 C-21.12345782 2.75055652 -11.21143728 0.71228953 0 0 Z " fill="#D4EDF6" transform="translate(81.07421875,3.8046875)"/>
<path d="M0 0 C2.52475802 1.94848227 5.01912491 3.93268134 7.50463867 5.9309082 C8.40182617 6.62700195 9.29901367 7.3230957 10.22338867 8.0402832 C13.9873858 11.15976027 16.16642351 14.23983241 17.12963867 19.0559082 C16.50463867 21.9309082 16.50463867 21.9309082 14.10620117 23.9387207 C9.83592178 26.60938817 5.11470856 27.56743398 0.25463867 28.6809082 C-0.65543945 28.90133789 -1.56551758 29.12176758 -2.50317383 29.34887695 C-9.12608726 30.9309082 -9.12608726 30.9309082 -11.49536133 30.9309082 C-11.49536133 28.9509082 -11.49536133 26.9709082 -11.49536133 24.9309082 C-11.16536133 25.5909082 -10.83536133 26.2509082 -10.49536133 26.9309082 C-9.50536133 26.9309082 -8.51536133 26.9309082 -7.49536133 26.9309082 C-7.82536133 25.2809082 -8.15536133 23.6309082 -8.49536133 21.9309082 C-7.83536133 21.9309082 -7.17536133 21.9309082 -6.49536133 21.9309082 C-6.49536133 23.2509082 -6.49536133 24.5709082 -6.49536133 25.9309082 C-5.50536133 25.9309082 -4.51536133 25.9309082 -3.49536133 25.9309082 C-3.82536133 24.2809082 -4.15536133 22.6309082 -4.49536133 20.9309082 C-1.85536133 20.9309082 0.78463867 20.9309082 3.50463867 20.9309082 C2.51463867 18.9509082 2.51463867 18.9509082 1.50463867 16.9309082 C4.14463867 16.9309082 6.78463867 16.9309082 9.50463867 16.9309082 C9.50463867 16.2709082 9.50463867 15.6109082 9.50463867 14.9309082 C8.84463867 14.6009082 8.18463867 14.2709082 7.50463867 13.9309082 C7.2494043 13.33793945 6.99416992 12.7449707 6.73120117 12.1340332 C5.02697297 9.07293541 2.73673899 7.67423401 -0.12036133 5.6809082 C-1.12325195 4.97450195 -2.12614258 4.2680957 -3.15942383 3.5402832 C-3.9302832 3.00918945 -4.70114258 2.4780957 -5.49536133 1.9309082 C-6.15536133 2.2609082 -6.81536133 2.5909082 -7.49536133 2.9309082 C-7.72223633 2.3121582 -7.94911133 1.6934082 -8.18286133 1.0559082 C-9.87465968 -1.68319388 -11.48780294 -2.11933652 -14.49536133 -3.0690918 C-15.15536133 -1.7490918 -15.81536133 -0.4290918 -16.49536133 0.9309082 C-17.82868228 -1.7357337 -17.16638166 -3.23589483 -16.49536133 -6.0690918 C-18.80536133 -7.3890918 -21.11536133 -8.7090918 -23.49536133 -10.0690918 C-23.82536133 -9.4090918 -24.15536133 -8.7490918 -24.49536133 -8.0690918 C-24.99036133 -9.5540918 -24.99036133 -9.5540918 -25.49536133 -11.0690918 C-27.88830756 -12.39348971 -30.17534272 -13.50741984 -32.68286133 -14.5690918 C-33.40393066 -14.87661377 -34.125 -15.18413574 -34.86791992 -15.50097656 C-53.37021538 -23.11586687 -73.77742548 -23.1689985 -92.49536133 -16.0690918 C-92.82536133 -14.4190918 -93.15536133 -12.7690918 -93.49536133 -11.0690918 C-93.99036133 -13.0490918 -93.99036133 -13.0490918 -94.49536133 -15.0690918 C-95.15536133 -14.7390918 -95.81536133 -14.4090918 -96.49536133 -14.0690918 C-97.15308561 -11.03974689 -97.15308561 -11.03974689 -97.49536133 -8.0690918 C-97.82536133 -8.0690918 -98.15536133 -8.0690918 -98.49536133 -8.0690918 C-98.49536133 -9.7190918 -98.49536133 -11.3690918 -98.49536133 -13.0690918 C-102.14290805 -11.28833723 -102.14290805 -11.28833723 -105.49536133 -9.0690918 C-106.54046494 -6.44806183 -106.54046494 -6.44806183 -106.49536133 -4.0690918 C-107.15536133 -5.0590918 -107.81536133 -6.0490918 -108.49536133 -7.0690918 C-109.64763956 -6.30792628 -110.79199993 -5.53476486 -111.93286133 -4.7565918 C-112.57094727 -4.32733398 -113.2090332 -3.89807617 -113.86645508 -3.45581055 C-115.78392973 -2.0656866 -115.78392973 -2.0656866 -116.49536133 0.9309082 C-116.49536133 0.2709082 -116.49536133 -0.3890918 -116.49536133 -1.0690918 C-119.56989693 -0.29269859 -119.56989693 -0.29269859 -121.49536133 1.9309082 C-122.15536133 2.5909082 -122.81536133 3.2509082 -123.49536133 3.9309082 C-123.82536133 4.5909082 -124.15536133 5.2509082 -124.49536133 5.9309082 C-125.81536133 5.6009082 -127.13536133 5.2709082 -128.49536133 4.9309082 C-127.83536133 6.9109082 -127.17536133 8.8909082 -126.49536133 10.9309082 C-127.81536133 9.9409082 -129.13536133 8.9509082 -130.49536133 7.9309082 C-131.15536133 8.9209082 -131.81536133 9.9109082 -132.49536133 10.9309082 C-133.98036133 11.4259082 -133.98036133 11.4259082 -135.49536133 11.9309082 C-136.15536133 12.5909082 -136.81536133 13.2509082 -137.49536133 13.9309082 C-138.48536133 12.9409082 -139.47536133 11.9509082 -140.49536133 10.9309082 C-134.85025615 4.56016576 -128.17860709 0.06902555 -121.05786133 -4.5065918 C-120.48188202 -4.87971497 -119.90590271 -5.25283813 -119.31246948 -5.63726807 C-107.14397389 -13.50664099 -94.92817511 -21.26142224 -80.49536133 -24.0690918 C-79.16504883 -24.33979492 -79.16504883 -24.33979492 -77.80786133 -24.6159668 C-48.39228315 -28.63979589 -23.04958482 -17.46852553 0 0 Z " fill="#8FB4C9" transform="translate(147.495361328125,26.069091796875)"/>
<path d="M0 0 C0 0.33 0 0.66 0 1 C-3.63 1.33 -7.26 1.66 -11 2 C-10.67 3.65 -10.34 5.3 -10 7 C-9.01 7 -8.02 7 -7 7 C-6.505 7.99 -6.505 7.99 -6 9 C-3.41394668 9.4683265 -3.41394668 9.4683265 -0.4375 9.625 C0.57441406 9.69976562 1.58632812 9.77453125 2.62890625 9.8515625 C3.80259766 9.92503906 3.80259766 9.92503906 5 10 C5.92604802 14.02659396 5.85035239 16.93720525 5 21 C3.35 21 1.7 21 0 21 C-0.0825 21.721875 -0.165 22.44375 -0.25 23.1875 C-1.15656616 26.58712309 -2.63894455 28.42430315 -5 31 C-8.20613847 32.60306924 -11.52139997 32.48740461 -15 32 C-18.46818479 29.88893099 -20.63246205 27.8539706 -22 24 C-22 23.01 -22 22.02 -22 21 C-23.65 21 -25.3 21 -27 21 C-26.67 18.36 -26.34 15.72 -26 13 C-26.66 12.67 -27.32 12.34 -28 12 C-27.34 10.35 -26.68 8.7 -26 7 C-26.66 6.34 -27.32 5.68 -28 5 C-28.5775 5.680625 -29.155 6.36125 -29.75 7.0625 C-32 9 -32 9 -34 8.9375 C-36.25964485 7.87829148 -38.07478713 6.58142486 -40 5 C-39.67 4.34 -39.34 3.68 -39 3 C-38.01 3.33 -37.02 3.66 -36 4 C-34.41681456 3.40667815 -32.85777774 2.74852016 -31.3125 2.0625 C-21.35521794 -1.52804409 -10.42752652 -0.32886425 0 0 Z " fill="#86BACF" transform="translate(95,15)"/>
<path d="M0 0 C-0.2165625 0.81791016 -0.2165625 0.81791016 -0.4375 1.65234375 C-2.89537215 11.63744938 -2.74543965 19.64666968 2 29 C4.11983666 31.9082837 6.4358015 34.48001182 9 37 C9.66 37.66 10.32 38.32 11 39 C4.08832585 37.65430198 -2.16025583 35.5530767 -8.6875 32.9375 C-16.62684442 29.70316549 -16.62684442 29.70316549 -25 28 C-25.33 28.99 -25.66 29.98 -26 31 C-26.99 31 -27.98 31 -29 31 C-29.2165625 29.39125 -29.2165625 29.39125 -29.4375 27.75 C-29.83846927 25.07687153 -30.32556908 22.60137642 -31 20 C-31 19.34 -31 18.68 -31 18 C-29.09155273 16.55126953 -29.09155273 16.55126953 -26.43359375 14.8828125 C-25.47259766 14.27566406 -24.51160156 13.66851562 -23.52148438 13.04296875 C-22.50376953 12.41003906 -21.48605469 11.77710938 -20.4375 11.125 C-19.44685547 10.49980469 -18.45621094 9.87460937 -17.43554688 9.23046875 C-2.75071023 0 -2.75071023 0 0 0 Z " fill="#D3EDF6" transform="translate(57,22)"/>
<path d="M0 0 C2.01440474 0.02363295 4.02748332 0.02053946 6.04199219 0.01391602 C15.71852165 0.0670307 23.23268865 1.30932637 32.01855469 5.33618164 C31.74011719 6.17149414 31.74011719 6.17149414 31.45605469 7.02368164 C30.93962128 9.75340109 31.39809834 11.64753745 32.01855469 14.33618164 C32.01855469 15.32618164 32.01855469 16.31618164 32.01855469 17.33618164 C30.69855469 17.66618164 29.37855469 17.99618164 28.01855469 18.33618164 C28.51355469 16.85118164 28.51355469 16.85118164 29.01855469 15.33618164 C28.02855469 15.00618164 27.03855469 14.67618164 26.01855469 14.33618164 C25.02855469 15.32618164 24.03855469 16.31618164 23.01855469 17.33618164 C23.51355469 16.84118164 23.51355469 16.84118164 24.01855469 16.33618164 C24.51355469 17.82118164 24.51355469 17.82118164 25.01855469 19.33618164 C24.35855469 19.33618164 23.69855469 19.33618164 23.01855469 19.33618164 C23.01855469 20.65618164 23.01855469 21.97618164 23.01855469 23.33618164 C22.02855469 23.33618164 21.03855469 23.33618164 20.01855469 23.33618164 C19.87417969 24.42930664 19.72980469 25.52243164 19.58105469 26.64868164 C18.63257502 32.86649278 18.63257502 32.86649278 16.05761719 34.83618164 C15.26097656 35.33118164 14.46433594 35.82618164 13.64355469 36.33618164 C10.77095786 38.13272428 8.3208937 39.84074322 6.01855469 42.33618164 C5.68855469 41.34618164 5.35855469 40.35618164 5.01855469 39.33618164 C3.25511719 39.24336914 3.25511719 39.24336914 1.45605469 39.14868164 C-3.30649101 38.54807641 -6.58428974 36.705106 -9.98144531 33.33618164 C-11.62806542 30.32931014 -11.98144531 28.76201421 -11.98144531 25.33618164 C-12.97144531 25.00618164 -13.96144531 24.67618164 -14.98144531 24.33618164 C-14.98144531 23.67618164 -14.98144531 23.01618164 -14.98144531 22.33618164 C-14.32144531 22.33618164 -13.66144531 22.33618164 -12.98144531 22.33618164 C-12.65144531 21.34618164 -12.32144531 20.35618164 -11.98144531 19.33618164 C-11.65144531 19.99618164 -11.32144531 20.65618164 -10.98144531 21.33618164 C-10.02431641 21.52374023 -10.02431641 21.52374023 -9.04785156 21.71508789 C-6.98144531 22.33618164 -6.98144531 22.33618164 -5.82128906 24.11352539 C-5.52351563 24.82637695 -5.22574219 25.53922852 -4.91894531 26.27368164 C-3.52556168 29.56876483 -3.1256299 30.24005858 0.01855469 32.33618164 C5.92577721 33.03839128 5.92577721 33.03839128 10.89355469 30.14868164 C12.85425457 27.55363768 14.04869303 25.42210509 15.01855469 22.33618164 C16.66855469 22.33618164 18.31855469 22.33618164 20.01855469 22.33618164 C20.01855469 18.70618164 20.01855469 15.07618164 20.01855469 11.33618164 C19.02855469 11.66618164 18.03855469 11.99618164 17.01855469 12.33618164 C14.97558594 12.21508789 14.97558594 12.21508789 12.83105469 11.89868164 C11.57292969 11.71305664 10.31480469 11.52743164 9.01855469 11.33618164 C8.52355469 9.85118164 8.52355469 9.85118164 8.01855469 8.33618164 C7.02855469 8.33618164 6.03855469 8.33618164 5.01855469 8.33618164 C4.89480469 7.53180664 4.77105469 6.72743164 4.64355469 5.89868164 C4.43730469 5.05305664 4.23105469 4.20743164 4.01855469 3.33618164 C-0.83874437 0.90753211 -7.22295228 1.83912541 -12.27050781 3.26586914 C-14.34246895 3.996853 -16.40378073 4.75912061 -18.45019531 5.55883789 C-20.98144531 6.33618164 -20.98144531 6.33618164 -23.98144531 5.33618164 C-16.16314079 0.12397863 -9.21703808 -0.11560581 0 0 Z " fill="#91C6D8" transform="translate(79.9814453125,13.663818359375)"/>
<path d="M0 0 C12.88335543 -0.44070771 25.43246716 2.34417078 36.92578125 8.1953125 C36.17578125 14.9453125 36.17578125 14.9453125 33.92578125 17.1953125 C32.87390625 16.7415625 31.82203125 16.2878125 30.73828125 15.8203125 C30.09632812 15.54703125 29.454375 15.27375 28.79296875 14.9921875 C27.31260343 14.36039979 25.83705212 13.71733386 24.36328125 13.0703125 C17.5955533 10.6408717 10.4122129 10.94248472 3.31494141 10.90014648 C1.32691263 10.88303739 -0.66082727 10.83915652 -2.6484375 10.79492188 C-11.27977564 10.73876202 -18.06336934 12.08279171 -26.07421875 15.1953125 C-27.40129845 15.55273151 -28.73280452 15.89615241 -30.07421875 16.1953125 C-31.42861543 13.48651915 -31.13923326 11.18597982 -31.07421875 8.1953125 C-21.12345782 2.75055652 -11.21143728 0.71228953 0 0 Z " fill="#D9EFF5" transform="translate(81.07421875,3.8046875)"/>
<path d="M0 0 C4.97209562 1.76429199 9.43438061 4.3939166 14 7 C14 7.99 14 8.98 14 10 C15.32 10 16.64 10 18 10 C22.4861151 12.67060167 26.6092604 15.88793297 30.75 19.0625 C31.32621094 19.49626953 31.90242188 19.93003906 32.49609375 20.37695312 C36.24299278 23.2460821 38.39405031 26.09107546 41 30 C38.04335481 31.4783226 35.25770263 31.06032783 32 31 C32.495 32.485 32.495 32.485 33 34 C29.535 34.495 29.535 34.495 26 35 C26 36.32 26 37.64 26 39 C25.01 39 24.02 39 23 39 C23 37.68 23 36.36 23 35 C22.34 35 21.68 35 21 35 C21.66 32.36 22.32 29.72 23 27 C13.31394306 20.29532512 3.50469569 14.33429937 -7 9 C-6.67 7.35 -6.34 5.7 -6 4 C-5.67 4.99 -5.34 5.98 -5 7 C-4.01 6.67 -3.02 6.34 -2 6 C-0.77479736 2.99152582 -0.77479736 2.99152582 0 0 Z " fill="#9DC4D6" transform="translate(118,13)"/>
<path d="M0 0 C-0.33 0.66 -0.66 1.32 -1 2 C-0.229355 4.1758384 -0.229355 4.1758384 0.9375 6.5 C3 10.80677966 3 10.80677966 3 13 C3.99 13 4.98 13 6 13 C5.505 7.555 5.505 7.555 5 2 C12.75 1.875 12.75 1.875 15 3 C15.25 5.8125 15.25 5.8125 15 9 C13 10.875 13 10.875 11 12 C11.495 13.485 11.495 13.485 12 15 C7.71 15 3.42 15 -1 15 C-0.67 13.68 -0.34 12.36 0 11 C-1.65 11 -3.3 11 -5 11 C-4.67 12.32 -4.34 13.64 -4 15 C-7.3 15 -10.6 15 -14 15 C-14 14.34 -14 13.68 -14 13 C-13.34 13 -12.68 13 -12 13 C-12.33 11.68 -12.66 10.36 -13 9 C-13.33 9.66 -13.66 10.32 -14 11 C-15.32 10.67 -16.64 10.34 -18 10 C-18.33 10.99 -18.66 11.98 -19 13 C-18.34 13 -17.68 13 -17 13 C-17 13.66 -17 14.32 -17 15 C-20.10189288 15.42575 -22.91644958 15.61361622 -26 15 C-28.24086044 12.95866823 -29.63425709 10.69030764 -31 8 C-31.33 9.65 -31.66 11.3 -32 13 C-31.34 13 -30.68 13 -30 13 C-30 13.66 -30 14.32 -30 15 C-31.65 15 -33.3 15 -35 15 C-35 10.71 -35 6.42 -35 2 C-33.68 2 -32.36 2 -31 2 C-28.75 5 -28.75 5 -27 8 C-26.67 6.68 -26.34 5.36 -26 4 C-26.99 4 -27.98 4 -29 4 C-29 3.01 -29 2.02 -29 1 C-25.04 1 -21.08 1 -17 1 C-16.67 1.66 -16.34 2.32 -16 3 C-15.34 2.34 -14.68 1.68 -14 1 C-9.30372318 -0.11816115 -4.79475416 -0.08266818 0 0 Z " fill="#5CB9DF" transform="translate(67,71)"/>
<path d="M0 0 C0.33 0.66 0.66 1.32 1 2 C3.97851562 1.90234375 3.97851562 1.90234375 6.95703125 1.8046875 C9 2 9 2 12 4 C12.59941406 3.26523438 12.59941406 3.26523438 13.2109375 2.515625 C15.49221729 0.58301243 16.67840063 0.65401956 19.625 0.75 C20.42164063 0.76546875 21.21828125 0.7809375 22.0390625 0.796875 C24 1 24 1 25 2 C26.83293095 10.600676 26.83293095 10.600676 24.4375 14.625 C21.29629411 16.3969623 19.55547488 16.59257915 16 16 C13.625 14.3125 13.625 14.3125 12 12 C11.75 9.25 11.75 9.25 12 7 C11.67 7.33 11.34 7.66 11 8 C10.01 8.495 10.01 8.495 9 9 C9.34786708 10.97536745 9.34786708 10.97536745 10 13 C10.66 13.33 11.32 13.66 12 14 C12 14.66 12 15.32 12 16 C8.12867972 15.42647107 5.91827204 13.51295648 3 11 C3 11.99 3 12.98 3 14 C3.66 14.33 4.32 14.66 5 15 C3.01532837 16.98467163 -0.61292281 16.31944275 -3.3125 16.375 C-3.98990234 16.41238281 -4.66730469 16.44976562 -5.36523438 16.48828125 C-9.14754366 16.55483215 -10.67078945 16.31345885 -13.44921875 13.66796875 C-15.34000579 10.41505301 -15.63035844 8.70335584 -15 5 C-13.5625 2.625 -13.5625 2.625 -11 1 C-8.6336789 0.77723798 -6.39492387 0.81127544 -4.0234375 0.95703125 C-1.92911026 1.15876436 -1.92911026 1.15876436 0 0 Z " fill="#38374A" transform="translate(110,70)"/>
<path d="M0 0 C0 1.65 0 3.3 0 5 C0.66 5 1.32 5 2 5 C2 5.66 2 6.32 2 7 C2.556875 6.7525 3.11375 6.505 3.6875 6.25 C6 6 6 6 8.75 7.9375 C9.4925 8.618125 10.235 9.29875 11 10 C11.5775 9.71125 12.155 9.4225 12.75 9.125 C14.83333333 8.08333333 16.91666667 7.04166667 19 6 C19.495 7.485 19.495 7.485 20 9 C20.66 9.33 21.32 9.66 22 10 C21.34 10 20.68 10 20 10 C20.04125 11.2375 20.0825 12.475 20.125 13.75 C20.13658291 17.01637962 19.8568702 19.2146947 18 22 C17.34 22 16.68 22 16 22 C16 20.35 16 18.7 16 17 C13.525 16.01 13.525 16.01 11 15 C11.495 16.98 11.495 16.98 12 19 C11.34 19 10.68 19 10 19 C10 20.65 10 22.3 10 24 C8.68 24 7.36 24 6 24 C5.94540227 22.43789839 5.90693899 20.87522911 5.875 19.3125 C5.85179687 18.44238281 5.82859375 17.57226562 5.8046875 16.67578125 C6.0171224 13.76542306 6.79174318 11.64008871 8 9 C7.02417969 9.5775 6.04835937 10.155 5.04296875 10.75 C3.75801111 11.50034023 2.47284388 12.2503216 1.1875 13 C0.54490234 13.3815625 -0.09769531 13.763125 -0.75976562 14.15625 C-5.66015625 17 -5.66015625 17 -9 17 C-9.33 16.34 -9.66 15.68 -10 15 C-10.680625 15.7425 -10.680625 15.7425 -11.375 16.5 C-13 18 -13 18 -15 18 C-15.33 18.66 -15.66 19.32 -16 20 C-16.66 20 -17.32 20 -18 20 C-18.61875 20.639375 -19.2375 21.27875 -19.875 21.9375 C-22.03474393 24.03372205 -23.0073798 24.90346386 -26 25 C-28.18025682 23.4657452 -28.88790525 22.35666511 -29.6875 19.8125 C-29.790625 19.214375 -29.89375 18.61625 -30 18 C-29.01 17.67 -28.02 17.34 -27 17 C-26.67 16.67 -26.34 16.34 -26 16 C-23.30423246 13.72987997 -21.36689416 12.12229805 -18 11 C-16.32012773 9.68334336 -14.65533995 8.34736973 -13 7 C-2.81818182 0 -2.81818182 0 0 0 Z " fill="#98C8D9" transform="translate(49,13)"/>
<path d="M0 0 C0.99 0.99 1.98 1.98 3 3 C-0.67371124 7.15289097 -5.22366459 10.23378258 -10 13 C-10.66 13 -11.32 13 -12 13 C-11.649375 14.051875 -11.29875 15.10375 -10.9375 16.1875 C-10.05029473 19.7954681 -9.94737118 21.52632489 -11 25 C-12.32 25 -13.64 25 -15 25 C-15 25.66 -15 26.32 -15 27 C-21.5841754 26.65471775 -27.15204584 26.17823595 -33 23 C-34.50934217 19.98131566 -34.17510672 17.32702771 -34 14 C-33.34 13.01 -32.68 12.02 -32 11 C-31.401875 11.226875 -30.80375 11.45375 -30.1875 11.6875 C-29.465625 11.790625 -28.74375 11.89375 -28 12 C-26.35405861 10.60411246 -26.35405861 10.60411246 -25 9 C-24.34 9 -23.68 9 -23 9 C-21.37485532 7.54166642 -21.37485532 7.54166642 -20 6 C-19.01 7.485 -19.01 7.485 -18 9 C-15.19700917 9.95891792 -13.63236889 10.21681219 -10.8125 9.25 C-8.70886156 7.96416127 -8.70886156 7.96416127 -7 5 C-6.34 4.67 -5.68 4.34 -5 4 C-4.67 3.34 -4.34 2.68 -4 2 C-2.68 2.33 -1.36 2.66 0 3 C0 2.01 0 1.02 0 0 Z " fill="#99C1D3" transform="translate(38,27)"/>
<path d="M0 0 C3.51978232 0.04423425 4.18876339 0.32939827 7.1875 2.5625 C9.22716583 5.34386249 9.9590874 6.98101966 10.25 10.375 C8.81260487 10.40212066 7.37506137 10.42145067 5.9375 10.4375 C4.73673828 10.45490234 4.73673828 10.45490234 3.51171875 10.47265625 C1.25 10.375 1.25 10.375 -1.75 9.375 C-1.75 10.365 -1.75 11.355 -1.75 12.375 C-0.698125 12.21 0.35375 12.045 1.4375 11.875 C4.45468796 11.47930322 7.22093972 11.28321029 10.25 11.375 C9.99919159 15.05352334 9.63558753 16.93099012 7.1875 19.75 C3.4042438 21.84286513 0.48500395 22.24766748 -3.75 21.375 C-6.5600346 19.58136089 -8.25940468 18.35619065 -9.75 15.375 C-10.17068924 12.31598826 -10.24028455 9.42741674 -9.75 6.375 C-7.3125 3.375 -7.3125 3.375 -4.75 1.375 C-3.75 0.375 -3.75 0.375 0 0 Z " fill="#6A838F" transform="translate(83.75,25.625)"/>
<path d="M0 0 C0.495 1.485 0.495 1.485 1 3 C-15.80095021 12.35404255 -32.23206033 14.07286804 -51 10 C-54.53065178 8.61466431 -57.77343408 6.98908299 -61 5 C-60.67 3.68 -60.34 2.36 -60 1 C-59.39414062 1.19335938 -58.78828125 1.38671875 -58.1640625 1.5859375 C-40.55280204 7.05897537 -23.58698207 8.09542478 -6.2890625 0.8671875 C-4 0 -4 0 0 0 Z " fill="#9FDBF4" transform="translate(116,60)"/>
<path d="M0 0 C0.99 0.33 1.98 0.66 3 1 C3.33 0.67 3.66 0.34 4 0 C4.495 1.485 4.495 1.485 5 3 C4.34 3 3.68 3 3 3 C3 4.32 3 5.64 3 7 C2.01 7 1.02 7 0 7 C-0.144375 8.093125 -0.28875 9.18625 -0.4375 10.3125 C-1.38597967 16.53031114 -1.38597967 16.53031114 -3.9609375 18.5 C-4.75757812 18.995 -5.55421875 19.49 -6.375 20 C-9.24759683 21.79654264 -11.69766098 23.50456158 -14 26 C-14.33 25.01 -14.66 24.02 -15 23 C-16.7634375 22.9071875 -16.7634375 22.9071875 -18.5625 22.8125 C-23.32504569 22.21189477 -26.60284443 20.36892436 -30 17 C-31.64662011 13.9931285 -32 12.42583257 -32 9 C-32.99 8.67 -33.98 8.34 -35 8 C-35 7.34 -35 6.68 -35 6 C-34.34 6 -33.68 6 -33 6 C-32.67 5.01 -32.34 4.02 -32 3 C-31.67 3.66 -31.34 4.32 -31 5 C-30.04287109 5.18755859 -30.04287109 5.18755859 -29.06640625 5.37890625 C-27 6 -27 6 -25.83984375 7.77734375 C-25.54207031 8.49019531 -25.24429688 9.20304687 -24.9375 9.9375 C-23.54411636 13.23258319 -23.14418459 13.90387694 -20 16 C-14.09277748 16.70220964 -14.09277748 16.70220964 -9.125 13.8125 C-7.16430012 11.21745604 -5.96986166 9.08592345 -5 6 C-3.35 6 -1.7 6 0 6 C0 4.02 0 2.04 0 0 Z " fill="#A5C6D5" transform="translate(100,30)"/>
<path d="M0 0 C2.31 0 4.62 0 7 0 C7.33 0.99 7.66 1.98 8 3 C8.99 3 9.98 3 11 3 C11 4.98 11 6.96 11 9 C8.74754119 6.31158141 7.11786042 4.35358125 6 1 C4.68 1 3.36 1 2 1 C2.33 1.66 2.66 2.32 3 3 C3.09499503 4.49756871 3.12987198 5.99942932 3.125 7.5 C3.12757812 8.2940625 3.13015625 9.088125 3.1328125 9.90625 C3 12 3 12 2 14 C3.65 14 5.3 14 7 14 C7 13.34 7 12.68 7 12 C6.34 12 5.68 12 5 12 C5 10.02 5 8.04 5 6 C9.875 10.75 9.875 10.75 11 13 C13.12576782 13.46651207 13.12576782 13.46651207 15.5625 13.625 C16.38878906 13.69976562 17.21507813 13.77453125 18.06640625 13.8515625 C18.70449219 13.90054688 19.34257813 13.94953125 20 14 C20 13.34 20 12.68 20 12 C19.34 12 18.68 12 18 12 C18 10.35 18 8.7 18 7 C19.65 7.99 21.3 8.98 23 10 C23.66 8.68 24.32 7.36 25 6 C25 7.98 25 9.96 25 12 C24.34 12 23.68 12 23 12 C23 12.66 23 13.32 23 14 C26.3 14 29.6 14 33 14 C32.505 12.02 32.505 12.02 32 10 C33.65 10 35.3 10 37 10 C36.67 11.32 36.34 12.64 36 14 C36.845625 13.814375 37.69125 13.62875 38.5625 13.4375 C42.2773282 12.96470368 45.32974273 13.33935369 49 14 C48.01 12.68 47.02 11.36 46 10 C46.804375 9.79375 47.60875 9.5875 48.4375 9.375 C49.7059375 8.694375 49.7059375 8.694375 51 8 C51.89830839 4.94727535 51.89830839 4.94727535 52 2 C48.7 1.67 45.4 1.34 42 1 C42.495 1.99 42.495 1.99 43 3 C43.06950541 4.54023996 43.08452357 6.08334988 43.0625 7.625 C43.05347656 8.44226563 43.04445312 9.25953125 43.03515625 10.1015625 C43.02355469 10.72804688 43.01195312 11.35453125 43 12 C42.01 12 41.02 12 40 12 C39.32880451 10.5437455 38.66318193 9.08492133 38 7.625 C37.62875 6.81289062 37.2575 6.00078125 36.875 5.1640625 C36 3 36 3 36 1 C34.35 1 32.7 1 31 1 C31 0.67 31 0.34 31 0 C36.53846154 -0.36923077 36.53846154 -0.36923077 38.875 1.5 C39.24625 1.995 39.6175 2.49 40 3 C40 2.01 40 1.02 40 0 C41.95803507 -0.05389087 43.91648909 -0.09274217 45.875 -0.125 C47.51082031 -0.15980469 47.51082031 -0.15980469 49.1796875 -0.1953125 C52 0 52 0 54 2 C54.125 5.125 54.125 5.125 54 8 C52.02 8.99 52.02 8.99 50 10 C50 11.65 50 13.3 50 15 C33.83 15 17.66 15 1 15 C0.67 10.05 0.34 5.1 0 0 Z " fill="#3A3F4E" transform="translate(30,72)"/>
<path d="M0 0 C23.59772148 -0.89489609 43.11692081 3.95172928 63 17 C62.01 17.99 61.02 18.98 60 20 C57.03 18.35 54.06 16.7 51 15 C50.67 15.66 50.34 16.32 50 17 C49.505 15.515 49.505 15.515 49 14 C46.60705327 12.67560181 44.31995523 11.56181141 41.8125 10.5 C40.72980835 10.03762939 40.72980835 10.03762939 39.62524414 9.56591797 C29.04047518 5.20482141 18.53514935 3.69433783 7.1796875 3.40625 C3.82179347 2.9772316 2.43767451 2.28001397 0 0 Z " fill="#86AAC0" transform="translate(73,1)"/>
<path d="M0 0 C0 0.33 0 0.66 0 1 C-0.969375 1.12375 -1.93875 1.2475 -2.9375 1.375 C-4.4534375 1.684375 -4.4534375 1.684375 -6 2 C-6.33 2.66 -6.66 3.32 -7 4 C-6.34 4 -5.68 4 -5 4 C-5.99 6.97 -6.98 9.94 -8 13 C-8.66 13 -9.32 13 -10 13 C-10.0270043 11.54176788 -10.04639787 10.08339325 -10.0625 8.625 C-10.07410156 7.81289062 -10.08570312 7.00078125 -10.09765625 6.1640625 C-10 4 -10 4 -9 2 C-10.32 2 -11.64 2 -13 2 C-13.66 3.98 -14.32 5.96 -15 8 C-15.66 7.67 -16.32 7.34 -17 7 C-17.625 4.4375 -17.625 4.4375 -18 2 C-19.32 2 -20.64 2 -22 2 C-21.67 2.66 -21.34 3.32 -21 4 C-20.90500497 5.49756871 -20.87012802 6.99942932 -20.875 8.5 C-20.87242188 9.2940625 -20.86984375 10.088125 -20.8671875 10.90625 C-21 13 -21 13 -22 15 C-24.25 14.875 -24.25 14.875 -27 14 C-29.3125 10.9375 -29.3125 10.9375 -31 8 C-31.33 9.65 -31.66 11.3 -32 13 C-31.34 13 -30.68 13 -30 13 C-30 13.66 -30 14.32 -30 15 C-31.65 15 -33.3 15 -35 15 C-35 10.71 -35 6.42 -35 2 C-33.68 2 -32.36 2 -31 2 C-28.75 5 -28.75 5 -27 8 C-26.67 6.68 -26.34 5.36 -26 4 C-26.99 4 -27.98 4 -29 4 C-29 3.01 -29 2.02 -29 1 C-25.04 1 -21.08 1 -17 1 C-16.67 1.66 -16.34 2.32 -16 3 C-15.34 2.34 -14.68 1.68 -14 1 C-9.30372318 -0.11816115 -4.79475416 -0.08266818 0 0 Z " fill="#435463" transform="translate(67,71)"/>
<path d="M0 0 C0.66 0.33 1.32 0.66 2 1 C1.67 2.32 1.34 3.64 1 5 C1.99 5 2.98 5 4 5 C4.33 3.68 4.66 2.36 5 1 C6.231394 3.46278801 6.07159196 5.2795055 6 8 C6.99 7.67 7.98 7.34 9 7 C13.78329594 8.34195738 18.36717886 10.39668443 22.4375 13.25 C24.89572584 15.28198082 24.89572584 15.28198082 28 15 C29.00284493 15.99714695 30.00240095 16.9976048 31 18 C38.08545192 21.47091395 45.17713235 22.69737456 53 23 C53 23.33 53 23.66 53 24 C49.7 24 46.4 24 43 24 C43 24.99 43 25.98 43 27 C42.01 26.67 41.02 26.34 40 26 C40 25.01 40 24.02 40 23 C39.41009277 23.06670898 38.82018555 23.13341797 38.21240234 23.20214844 C30.34597012 23.69658357 25.32523403 21.12244709 18.625 17.25 C10.92804263 12.89047672 3.49927809 9.51289518 -5 7 C-4.67 6.01 -4.34 5.02 -4 4 C-2.68 4 -1.36 4 0 4 C0 2.68 0 1.36 0 0 Z " fill="#6FA8C6" transform="translate(27,48)"/>
<path d="M0 0 C1.64826111 2.96687001 2.44271087 5.65626525 3 9 C2.01 9.33 1.02 9.66 0 10 C-0.515625 10.515625 -1.03125 11.03125 -1.5625 11.5625 C-2.036875 12.036875 -2.51125 12.51125 -3 13 C-3.66 13 -4.32 13 -5 13 C-5.33 13.66 -5.66 14.32 -6 15 C-6.66 15 -7.32 15 -8 15 C-8.928125 15.9590625 -8.928125 15.9590625 -9.875 16.9375 C-12.03474393 19.03372205 -13.0073798 19.90346386 -16 20 C-18.18025682 18.4657452 -18.88790525 17.35666511 -19.6875 14.8125 C-19.790625 14.214375 -19.89375 13.61625 -20 13 C-19.01 12.67 -18.02 12.34 -17 12 C-16.67 11.67 -16.34 11.34 -16 11 C-13.30423246 8.72987997 -11.36689416 7.12229805 -8 6 C-6.31295807 4.69254251 -4.64639965 3.35827971 -3 2 C-2.01 1.34 -1.02 0.68 0 0 Z " fill="#D1E9F0" transform="translate(39,18)"/>
<path d="M0 0 C5.77617643 3.00842522 12.99056033 6.98112067 16 13 C16.99 14.485 16.99 14.485 18 16 C15.04335481 17.4783226 12.25770263 17.06032783 9 17 C9.33 17.99 9.66 18.98 10 20 C8.02 20 6.04 20 4 20 C3.34 18.68 2.68 17.36 2 16 C3.32 15.34 4.64 14.68 6 14 C5.34 13.67 4.68 13.34 4 13 C4 12.34 4 11.68 4 11 C2.68 10.34 1.36 9.68 0 9 C0.33 8.34 0.66 7.68 1 7 C-0.32 7.33 -1.64 7.66 -3 8 C-3 4.42424104 -1.91159393 2.94704065 0 0 Z " fill="#C9E3EC" transform="translate(141,27)"/>
<path d="M0 0 C2.31 0 4.62 0 7 0 C7.24234375 0.60328125 7.4846875 1.2065625 7.734375 1.828125 C9.66640281 6.43526824 11.38092638 9.50572202 15 13 C15.38499891 14.65549531 15.72793135 16.3222433 16 18 C16.66 18.33 17.32 18.66 18 19 C15.75 19.6875 15.75 19.6875 13 20 C10.6875 18.5625 10.6875 18.5625 9 17 C9.33 16.34 9.66 15.68 10 15 C9.01 15.33 8.02 15.66 7 16 C4.3125 15.5625 4.3125 15.5625 2 15 C1.4465236 12.92446352 1 11.15634036 1 9 C0.34 8.01 -0.32 7.02 -1 6 C-0.625 2.8125 -0.625 2.8125 0 0 Z " fill="#B8D4E0" transform="translate(61,39)"/>
<path d="M0 0 C0.66 1.32 1.32 2.64 2 4 C-0.96224074 5.69812855 -3.94700319 7.35222067 -6.9375 9 C-7.76830078 9.47695312 -8.59910156 9.95390625 -9.45507812 10.4453125 C-14.53333118 13.21167603 -18.28061236 14.5425643 -24.09204102 14.078125 C-26.2246774 13.87779463 -26.2246774 13.87779463 -29 15 C-29 15.66 -29 16.32 -29 17 C-32.9813783 18.3271261 -36.85045227 18.06915913 -41 18 C-41.66 16.68 -42.32 15.36 -43 14 C-41.98421875 13.90203125 -40.9684375 13.8040625 -39.921875 13.703125 C-24.9001895 12.13000085 -13.080979 7.36251823 0 0 Z " fill="#6CA8C7" transform="translate(125,58)"/>
<path d="M0 0 C5.14502339 0.46065153 9.60925405 1.7691515 14.4375 3.5625 C15.67371094 4.01753906 16.90992188 4.47257812 18.18359375 4.94140625 C19.11300781 5.29074219 20.04242188 5.64007813 21 6 C20.01 6.495 20.01 6.495 19 7 C19 7.99 19 8.98 19 10 C19.99 10 20.98 10 22 10 C21.67 11.32 21.34 12.64 21 14 C18.00354398 13.09409469 15.35477307 12.22053461 12.6875 10.5625 C9.02699289 8.43429819 5.13444802 6.94223177 1 6 C0.01 6.495 0.01 6.495 -1 7 C-1.04254356 5.00045254 -1.04080783 2.99958364 -1 1 C-0.67 0.67 -0.34 0.34 0 0 Z " fill="#98CAE0" transform="translate(33,50)"/>
<path d="M0 0 C0 0.66 0 1.32 0 2 C-0.33 2.33 -0.66 2.66 -1 3 C-1 3.66 -1 4.32 -1 5 C-1.9075 5.4125 -2.815 5.825 -3.75 6.25 C-6.79665618 7.89050718 -8.71126806 9.44718361 -11 12 C-11.99 11.67 -12.98 11.34 -14 11 C-13.34 9.35 -12.68 7.7 -12 6 C-12.66 5.34 -13.32 4.68 -14 4 C-14.5775 4.680625 -15.155 5.36125 -15.75 6.0625 C-18 8 -18 8 -20 7.9375 C-22.25964485 6.87829148 -24.07478713 5.58142486 -26 4 C-25.67 3.34 -25.34 2.68 -25 2 C-24.01 2.33 -23.02 2.66 -22 3 C-20.12151697 2.40529 -18.26924422 1.72601075 -16.4375 1 C-10.56152706 -1.08987101 -6.06726045 -1.23492912 0 0 Z " fill="#81C5D9" transform="translate(81,16)"/>
<path d="M0 0 C1.875 1.125 1.875 1.125 3 3 C3.54624158 6.66762206 3.47898298 8.3258758 1.3125 11.375 C-1 13 -1 13 -3.5625 13.4375 C-6 13 -6 13 -7.8125 11.9375 C-9.67036623 8.90624457 -9.37133265 6.46577141 -9 3 C-6.84332735 -0.71426957 -4.0099826 -0.50124783 0 0 Z " fill="#57ACCF" transform="translate(105,73)"/>
<path d="M0 0 C7.75 -0.125 7.75 -0.125 10 1 C10.25 3.8125 10.25 3.8125 10 7 C8 8.875 8 8.875 6 10 C6.33 10.99 6.66 11.98 7 13 C2.71 13 -1.58 13 -6 13 C-5.34 11.02 -4.68 9.04 -4 7 C-3.34 8.32 -2.68 9.64 -2 11 C-1.01 11 -0.02 11 1 11 C0.67 7.37 0.34 3.74 0 0 Z " fill="#89CBE5" transform="translate(72,73)"/>
<path d="M0 0 C6.8359375 -0.1953125 6.8359375 -0.1953125 9 0 C9.66 0.66 10.32 1.32 11 2 C10.814375 2.969375 10.62875 3.93875 10.4375 4.9375 C10.293125 5.948125 10.14875 6.95875 10 8 C11.35444301 9.77190909 11.35444301 9.77190909 13 11 C13 11.66 13 12.32 13 13 C9.12867972 12.42647107 6.91827204 10.51295648 4 8 C4 8.99 4 9.98 4 11 C4.66 11.33 5.32 11.66 6 12 C5.67 12.33 5.34 12.66 5 13 C3.35 13 1.7 13 0 13 C0 8.71 0 4.42 0 0 Z " fill="#5F9BB6" transform="translate(109,73)"/>
<path d="M0 0 C1.65 1.65 3.3 3.3 5 5 C3.75453595 8.73639216 2.36595047 9.18756513 -1 11 C1.97 11.495 1.97 11.495 5 12 C4.34 12.66 3.68 13.32 3 14 C0.3984375 13.9765625 0.3984375 13.9765625 -2.625 13.625 C-3.62789062 13.51414062 -4.63078125 13.40328125 -5.6640625 13.2890625 C-6.82035156 13.14597656 -6.82035156 13.14597656 -8 13 C-8.66666667 10.33333333 -9.33333333 7.66666667 -10 5 C-8.68 5 -7.36 5 -6 5 C-2.72582285 3.74810874 -2.02917452 3.04376178 0 0 Z " fill="#B4D5E4" transform="translate(17,33)"/>
<path d="M0 0 C2.0625 2.3125 2.0625 2.3125 4 5 C3.67 5.99 3.34 6.98 3 8 C5.31 8 7.62 8 10 8 C10.66 9.98 11.32 11.96 12 14 C12.99 14 13.98 14 15 14 C15 14.66 15 15.32 15 16 C9.07329556 15.61026207 4.29615218 14.7584126 -1 12 C-2.50934217 8.98131566 -2.17510672 6.32702771 -2 3 C-1.34 2.01 -0.68 1.02 0 0 Z " fill="#83ABC2" transform="translate(6,38)"/>
<path d="M0 0 C0.721875 0.45375 1.44375 0.9075 2.1875 1.375 C4.75413723 2.85794596 7.25132139 3.91499529 10 5 C10.99 5.66 11.98 6.32 13 7 C12.40138258 9.35171131 11.73075648 11.6859378 11 14 C10.01 14.495 10.01 14.495 9 15 C8.566875 14.505 8.13375 14.01 7.6875 13.5 C6.00259517 11.66781808 6.00259517 11.66781808 3 12 C3 10.68 3 9.36 3 8 C2.67 8.66 2.34 9.32 2 10 C0.68 9.67 -0.64 9.34 -2 9 C-1.34 6.03 -0.68 3.06 0 0 Z " fill="#D5ECF2" transform="translate(119,13)"/>
<path d="M0 0 C1.65 0 3.3 0 5 0 C5.33 1.65 5.66 3.3 6 5 C5.34 5 4.68 5 4 5 C3.34 6.98 2.68 8.96 2 11 C0.35 11.33 -1.3 11.66 -3 12 C-2.67 12.99 -2.34 13.98 -2 15 C-3.75 17.0625 -3.75 17.0625 -6 19 C-8.25 18.75 -8.25 18.75 -10 18 C-10.33 16.68 -10.66 15.36 -11 14 C-9.7934375 13.319375 -9.7934375 13.319375 -8.5625 12.625 C-5.91143428 11.25274335 -5.91143428 11.25274335 -5 9 C-4.34 9 -3.68 9 -3 9 C-3 8.01 -3 7.02 -3 6 C-2.34 6 -1.68 6 -1 6 C-0.67 4.02 -0.34 2.04 0 0 Z " fill="#C4DDE8" transform="translate(103,39)"/>
<path d="M0 0 C0.33 0 0.66 0 1 0 C1.28875 1.11375 1.5775 2.2275 1.875 3.375 C2.69241329 7.00291092 2.69241329 7.00291092 5 9 C7.58064129 9.14497985 10.04943884 9.18677545 12.625 9.125 C13.33140625 9.11597656 14.0378125 9.10695313 14.765625 9.09765625 C16.51056098 9.07407603 18.25532295 9.03820461 20 9 C19.67 7.68 19.34 6.36 19 5 C22.11198065 6.49836105 25.0534615 8.19933758 28 10 C28 9.34 28 8.68 28 8 C27.01 7.67 26.02 7.34 25 7 C24.3125 4.9375 24.3125 4.9375 24 3 C24.99 2.67 25.98 2.34 27 2 C27 1.34 27 0.68 27 0 C27.66 0.33 28.32 0.66 29 1 C29.33333333 3.33333333 29.66666667 5.66666667 30 8 C32.28705831 9.14352916 33.59264762 9.10334439 36.125 9.0625 C38.043125 9.0315625 38.043125 9.0315625 40 9 C40 7.35 40 5.7 40 4 C40.33 4 40.66 4 41 4 C41 5.98 41 7.96 41 10 C37.96552492 11.51723754 34.82303282 11.1028733 31.5 11.0625 C30.46552734 11.05573242 30.46552734 11.05573242 29.41015625 11.04882812 C27.60673936 11.03652411 25.80336281 11.01861269 24 11 C22.00205421 11 20.00451991 11.07029088 18.0078125 11.140625 C16.38022725 11.17791828 14.75262185 11.21434005 13.125 11.25 C12.30902344 11.28351563 11.49304688 11.31703125 10.65234375 11.3515625 C4.6447713 11.44956531 4.6447713 11.44956531 1.4453125 9.21875 C-0.58306449 6.10491722 -0.27919222 3.62949881 0 0 Z " fill="#383D4D" transform="translate(94,76)"/>
<path d="M0 0 C5.59331224 0.44746498 8.95852109 2.55980855 13.375 5.75 C14.01566406 6.18054688 14.65632813 6.61109375 15.31640625 7.0546875 C17.1484375 8.359375 17.1484375 8.359375 20 11 C20.4140625 13.828125 20.4140625 13.828125 20 16 C15.95579349 14.22054913 12.53921513 11.60470327 9 9 C8.01 9.495 8.01 9.495 7 10 C6.773125 9.38125 6.54625 8.7625 6.3125 8.125 C4.62070165 5.38589791 3.00755839 4.94975528 0 4 C-0.66 5.32 -1.32 6.64 -2 8 C-2.33 7.34 -2.66 6.68 -3 6 C-2.06553465 3.96855359 -1.06775224 1.96466413 0 0 Z " fill="#93B7CA" transform="translate(133,19)"/>
<path d="M0 0 C1.32 0 2.64 0 4 0 C6.25 3 6.25 3 8 6 C8.33 4.68 8.66 3.36 9 2 C8.34 2 7.68 2 7 2 C7 1.34 7 0.68 7 0 C8.65 0 10.3 0 12 0 C11.67 4.29 11.34 8.58 11 13 C7.00003714 11.66667905 6.16217663 9.5042173 4 6 C3.67 7.65 3.34 9.3 3 11 C3.66 11 4.32 11 5 11 C5 11.66 5 12.32 5 13 C3.35 13 1.7 13 0 13 C0 8.71 0 4.42 0 0 Z " fill="#7CC7E5" transform="translate(32,73)"/>
<path d="M0 0 C1.21816406 0.03480469 1.21816406 0.03480469 2.4609375 0.0703125 C3.68683594 0.09738281 3.68683594 0.09738281 4.9375 0.125 C5.87722656 0.15980469 5.87722656 0.15980469 6.8359375 0.1953125 C6.8359375 1.5153125 6.8359375 2.8353125 6.8359375 4.1953125 C4.1959375 3.8653125 1.5559375 3.5353125 -1.1640625 3.1953125 C-1.1640625 5.5053125 -1.1640625 7.8153125 -1.1640625 10.1953125 C0.1559375 10.1953125 1.4759375 10.1953125 2.8359375 10.1953125 C2.1759375 9.8653125 1.5159375 9.5353125 0.8359375 9.1953125 C0.8359375 8.5353125 0.8359375 7.8753125 0.8359375 7.1953125 C2.8159375 7.1953125 4.7959375 7.1953125 6.8359375 7.1953125 C6.8359375 8.8453125 6.8359375 10.4953125 6.8359375 12.1953125 C3.99510109 13.61573071 1.98116472 13.50983522 -1.1640625 13.1953125 C-3.6015625 11.6328125 -3.6015625 11.6328125 -5.1640625 9.1953125 C-4.86211445 0.43881899 -4.86211445 0.43881899 0 0 Z " fill="#61B0D2" transform="translate(127.1640625,72.8046875)"/>
<path d="M0 0 C1.32 0 2.64 0 4 0 C4.66 1.65 5.32 3.3 6 5 C6.4125 4.175 6.825 3.35 7.25 2.5 C7.8275 1.675 8.405 0.85 9 0 C10.32 0 11.64 0 13 0 C12.67 1.65 12.34 3.3 12 5 C11.01 5 10.02 5 9 5 C8.67 6.32 8.34 7.64 8 9 C6.68 8.67 5.36 8.34 4 8 C3.67 8.99 3.34 9.98 3 11 C3.66 11 4.32 11 5 11 C5 11.66 5 12.32 5 13 C3.35 13 1.7 13 0 13 C0 8.71 0 4.42 0 0 Z " fill="#8DCDE7" transform="translate(45,73)"/>
<path d="M0 0 C1.98 0.495 1.98 0.495 4 1 C4.5625 2.9375 4.5625 2.9375 5 5 C4.67 5.33 4.34 5.66 4 6 C5.32 6.66 6.64 7.32 8 8 C8 8.99 8 9.98 8 11 C8.66 11.33 9.32 11.66 10 12 C9.34 12 8.68 12 8 12 C8 12.66 8 13.32 8 14 C8.66 14.33 9.32 14.66 10 15 C6.71023192 16.09658936 5.28696233 15.79953138 2 15 C1.4465236 12.92446352 1 11.15634036 1 9 C0.34 8.01 -0.32 7.02 -1 6 C-0.625 2.8125 -0.625 2.8125 0 0 Z " fill="#C3DDE9" transform="translate(61,39)"/>
<path d="M0 0 C0.33 2.97 0.66 5.94 1 9 C-1.31 10.32 -3.62 11.64 -6 13 C-7.84085049 9.89356481 -8.71960316 7.5980158 -8 4 C-3.02702703 0 -3.02702703 0 0 0 Z " fill="#CEE7EE" transform="translate(49,13)"/>
<path d="M0 0 C6.45152159 0.48690729 6.45152159 0.48690729 8.9375 2.8125 C10 5 10 5 10 9 C7.03 9 4.06 9 1 9 C0.29925156 5.846632 0 3.27275026 0 0 Z " fill="#476372" transform="translate(84,27)"/>
<path d="M0 0 C3.29158865 -0.05905417 6.58303756 -0.09394375 9.875 -0.125 C10.7928125 -0.14175781 11.710625 -0.15851562 12.65625 -0.17578125 C19.00812606 -0.22051277 24.82610036 0.51148437 31 2 C31 2.33 31 2.66 31 3 C29.02 3 27.04 3 25 3 C25 3.33 25 3.66 25 4 C21.58237216 3.91899023 18.16651152 3.80615997 14.75 3.6875 C13.29787109 3.65366211 13.29787109 3.65366211 11.81640625 3.61914062 C10.41455078 3.5659668 10.41455078 3.5659668 8.984375 3.51171875 C8.12553711 3.48553467 7.26669922 3.45935059 6.38183594 3.43237305 C3.56938615 2.92183096 2.1350676 1.85629865 0 0 Z " fill="#86A4BB" transform="translate(73,1)"/>
<path d="M0 0 C1.65 0 3.3 0 5 0 C5.66 2.31 6.32 4.62 7 7 C0.07 8.485 0.07 8.485 -7 10 C-7 8.02 -7 6.04 -7 4 C-6.67 4.66 -6.34 5.32 -6 6 C-5.01 6 -4.02 6 -3 6 C-3.33 4.35 -3.66 2.7 -4 1 C-3.34 1 -2.68 1 -2 1 C-2 2.32 -2 3.64 -2 5 C-1.01 5 -0.02 5 1 5 C0.67 3.35 0.34 1.7 0 0 Z " fill="#78A8C3" transform="translate(143,47)"/>
<path d="M0 0 C7.26 0 14.52 0 22 0 C22 0.33 22 0.66 22 1 C18.37 1.33 14.74 1.66 11 2 C11.33 3.32 11.66 4.64 12 6 C11.34 6 10.68 6 10 6 C10 7.32 10 8.64 10 10 C8.02 10.33 6.04 10.66 4 11 C4.875 6.125 4.875 6.125 6 5 C5.34 4.34 4.68 3.68 4 3 C5.32 3 6.64 3 8 3 C5.39902318 1.69951159 2.86044938 1.43528578 0 1 C0 0.67 0 0.34 0 0 Z " fill="#6EB6CD" transform="translate(73,15)"/>
<path d="M0 0 C0.66 0.66 1.32 1.32 2 2 C1.9765625 4.1640625 1.9765625 4.1640625 1.625 6.625 C1.45871094 7.85089844 1.45871094 7.85089844 1.2890625 9.1015625 C1.14597656 10.04128906 1.14597656 10.04128906 1 11 C-0.65 11 -2.3 11 -4 11 C-4.33 11.99 -4.66 12.98 -5 14 C-5 13.34 -5 12.68 -5 12 C-6.65 12 -8.3 12 -10 12 C-10.33 12.66 -10.66 13.32 -11 14 C-11 13.34 -11 12.68 -11 12 C-12.98 12.33 -14.96 12.66 -17 13 C-17 12.01 -17 11.02 -17 10 C-14.03 10.495 -14.03 10.495 -11 11 C-10.67 10.34 -10.34 9.68 -10 9 C-10 9.66 -10 10.32 -10 11 C-8.35 11 -6.7 11 -5 11 C-5.33 9.02 -5.66 7.04 -6 5 C-5.01 5.66 -4.02 6.32 -3 7 C-1.79371992 4.66785852 -0.8345262 2.50357861 0 0 Z " fill="#93BFD0" transform="translate(99,25)"/>
<path d="M0 0 C1.65 0 3.3 0 5 0 C4.73727987 3.85322864 4.42708562 5.56137153 1.6875 8.375 C-1 10 -1 10 -5 10 C-5 8.35 -5 6.7 -5 5 C-4.360625 4.731875 -3.72125 4.46375 -3.0625 4.1875 C-0.66868314 3.11332248 -0.66868314 3.11332248 0 0 Z " fill="#4E6471" transform="translate(89,37)"/>
<path d="M0 0 C3.465 1.98 3.465 1.98 7 4 C6.75 6.375 6.75 6.375 6 9 C3.9375 10.3125 3.9375 10.3125 2 11 C1.34 10.34 0.68 9.68 0 9 C0.33 8.34 0.66 7.68 1 7 C-0.32 7.33 -1.64 7.66 -3 8 C-3 4.42424104 -1.91159393 2.94704065 0 0 Z " fill="#D8EEF4" transform="translate(141,27)"/>
<path d="M0 0 C2.91517292 1.07401108 4.77810176 1.77810176 7 4 C6.63318342 6.93453261 6.13562754 7.86437246 4 10 C3.01 10 2.02 10 1 10 C1 9.01 1 8.02 1 7 C-0.32 7 -1.64 7 -3 7 C-1.125 1.125 -1.125 1.125 0 0 Z " fill="#D3EBF1" transform="translate(133,22)"/>
<path d="M0 0 C0.33 0 0.66 0 1 0 C1 1.98 1 3.96 1 6 C0.34 6 -0.32 6 -1 6 C-1 6.66 -1 7.32 -1 8 C2.3 8 5.6 8 9 8 C8.67 6.68 8.34 5.36 8 4 C9.65 4 11.3 4 13 4 C12.625 5.9375 12.625 5.9375 12 8 C8.99686252 9.50156874 6.20932478 9.09281204 2.875 9.0625 C1.59367187 9.05347656 0.31234375 9.04445313 -1.0078125 9.03515625 C-2.48894531 9.01775391 -2.48894531 9.01775391 -4 9 C-4 8.01 -4 7.02 -4 6 C-4.66 6 -5.32 6 -6 6 C-6 4.35 -6 2.7 -6 1 C-4.35 1.99 -2.7 2.98 -1 4 C-0.67 2.68 -0.34 1.36 0 0 Z " fill="#3C4B5A" transform="translate(54,78)"/>
<path d="M0 0 C0 0.99 0 1.98 0 3 C0.66 3 1.32 3 2 3 C2 5.97 2 8.94 2 12 C0.68 12.33 -0.64 12.66 -2 13 C-1.85691406 12.06027344 -1.85691406 12.06027344 -1.7109375 11.1015625 C-1.54464844 9.87566406 -1.54464844 9.87566406 -1.375 8.625 C-1.25898437 7.81289062 -1.14296875 7.00078125 -1.0234375 6.1640625 C-1.01570313 5.44992188 -1.00796875 4.73578125 -1 4 C-2.88500271 1.68436913 -2.88500271 1.68436913 -6 1.75 C-9.11499729 1.68436913 -9.11499729 1.68436913 -11 4 C-11.64767793 6.57061311 -11.64767793 6.57061311 -12 9 C-12.33 9 -12.66 9 -13 9 C-13.31274352 5.55982129 -13.33853023 3.57402952 -11.5625 0.5625 C-7.69063701 -1.79839207 -4.3107537 -0.84741312 0 0 Z " fill="#3E4756" transform="translate(108,72)"/>
<path d="M0 0 C0.66 0.33 1.32 0.66 2 1 C1.67 1.33 1.34 1.66 1 2 C3.64 1.67 6.28 1.34 9 1 C9.33 1.99 9.66 2.98 10 4 C7.04335481 5.4783226 4.25770263 5.06032783 1 5 C1.33 5.99 1.66 6.98 2 8 C0.02 8 -1.96 8 -4 8 C-4.66 6.68 -5.32 5.36 -6 4 C-5.38125 3.896875 -4.7625 3.79375 -4.125 3.6875 C-1.63473516 3.12474627 -1.63473516 3.12474627 0 0 Z " fill="#B5D5E4" transform="translate(149,39)"/>
<path d="M0 0 C3.10096781 0.34455198 4.79937138 0.84817294 7.3125 2.75 C9.30929204 5.41238939 9.36116409 6.74952319 9 10 C5.49849196 9.70820766 4.21713533 9.21713533 1.6875 6.6875 C0 4 0 4 0 0 Z " fill="#506774" transform="translate(74,37)"/>
<path d="M0 0 C1.65 1.65 3.3 3.3 5 5 C4.67 5.99 4.34 6.98 4 8 C1.1875 8.625 1.1875 8.625 -2 9 C-2.99 8.34 -3.98 7.68 -5 7 C-4.67 5.68 -4.34 4.36 -4 3 C-3.34 3 -2.68 3 -2 3 C-1.34 2.01 -0.68 1.02 0 0 Z " fill="#CBE5EF" transform="translate(17,33)"/>
<path d="M0 0 C2.625 0.375 2.625 0.375 5 1 C5.125 3.875 5.125 3.875 5 7 C4.34 7.66 3.68 8.32 3 9 C-0.53571429 8.46428571 -0.53571429 8.46428571 -2 7 C-2.1875 4.5625 -2.1875 4.5625 -2 2 C-1.34 1.34 -0.68 0.68 0 0 Z " fill="#3B4253" transform="translate(100,75)"/>
<path d="M0 0 C0.33 0.66 0.66 1.32 1 2 C-1.64738916 3.4606285 -2.89448334 4 -6 4 C-6.33 5.32 -6.66 6.64 -7 8 C-7 7.34 -7 6.68 -7 6 C-8.32 6 -9.64 6 -11 6 C-11.33 6.66 -11.66 7.32 -12 8 C-12.99 7.01 -13.98 6.02 -15 5 C-13.44424022 4.15415002 -11.8800388 3.32381601 -10.3125 2.5 C-9.44238281 2.0359375 -8.57226562 1.571875 -7.67578125 1.09375 C-4.88211171 -0.04818792 -2.98370887 -0.21504208 0 0 Z " fill="#87BCD4" transform="translate(123,54)"/>
<path d="M0 0 C1.98 0 3.96 0 6 0 C6.33 0.66 6.66 1.32 7 2 C9.52733235 2.65555119 9.52733235 2.65555119 12 3 C12 5.97 12 8.94 12 12 C11.01 12 10.02 12 9 12 C8.32880451 10.5437455 7.66318193 9.08492133 7 7.625 C6.62875 6.81289062 6.2575 6.00078125 5.875 5.1640625 C5 3 5 3 5 1 C3.35 1 1.7 1 0 1 C0 0.67 0 0.34 0 0 Z " fill="#36354C" transform="translate(61,72)"/>
<path d="M0 0 C2.08450717 0.2831556 4.16758367 0.57685669 6.25 0.875 C7.99023438 1.11863281 7.99023438 1.11863281 9.765625 1.3671875 C12.58193313 1.91820431 14.55217557 2.55796482 17 4 C17 4.99 17 5.98 17 7 C13.19281452 6.27246734 9.44514431 5.38723428 5.6875 4.4375 C4.61886719 4.16808594 3.55023438 3.89867187 2.44921875 3.62109375 C1.64097656 3.41613281 0.83273438 3.21117187 0 3 C0 2.01 0 1.02 0 0 Z " fill="#95BACC" transform="translate(97,3)"/>
<path d="M0 0 C0.66 0.33 1.32 0.66 2 1 C2 1.66 2 2.32 2 3 C4.31 3.66 6.62 4.32 9 5 C9 6.33333333 9 7.66666667 9 9 C2.375 9.25 2.375 9.25 -1 7 C-0.67 4.69 -0.34 2.38 0 0 Z " fill="#A2CBDE" transform="translate(6,43)"/>
<path d="M0 0 C0 1.32 0 2.64 0 4 C-0.99 4.66 -1.98 5.32 -3 6 C-3.33 6.99 -3.66 7.98 -4 9 C-5.65 9 -7.3 9 -9 9 C-8.25 3.25 -8.25 3.25 -6 1 C-3.90200436 0.34437636 -2.19959601 0 0 0 Z " fill="#476677" transform="translate(83,27)"/>
<path d="M0 0 C2.125 0.9375 2.125 0.9375 4 2 C4 3.32 4 4.64 4 6 C2.71086513 6.67154933 1.41859796 7.33708859 0.125 8 C-0.59429687 8.37125 -1.31359375 8.7425 -2.0546875 9.125 C-4 10 -4 10 -6 10 C-6 8.68 -6 7.36 -6 6 C-4.02 5.01 -2.04 4.02 0 3 C-0.66 2.34 -1.32 1.68 -2 1 C-1.34 0.67 -0.68 0.34 0 0 Z " fill="#A8DAEE" transform="translate(123,52)"/>
<path d="M0 0 C3.0625 0.3125 3.0625 0.3125 4.9375 1.6875 C6.0625 3.3125 6.0625 3.3125 6.0625 5.3125 C3.7525 5.6425 1.4425 5.9725 -0.9375 6.3125 C-1.2675 5.3225 -1.5975 4.3325 -1.9375 3.3125 C-2.9275 2.9825 -3.9175 2.6525 -4.9375 2.3125 C-2.9375 0.3125 -2.9375 0.3125 0 0 Z " fill="#B5DAE6" transform="translate(89.9375,18.6875)"/>
<path d="M0 0 C4.95 0 9.9 0 15 0 C10.71042811 3.21717892 9.38879324 3.43056034 4.25 3.6875 C3.07953125 3.75324219 1.9090625 3.81898437 0.703125 3.88671875 C-0.18890625 3.92410156 -1.0809375 3.96148437 -2 4 C-1.34 2.68 -0.68 1.36 0 0 Z " fill="#8FB2C6" transform="translate(67,2)"/>
<path d="M0 0 C0.66 1.32 1.32 2.64 2 4 C3.65 4 5.3 4 7 4 C7 3.01 7 2.02 7 1 C8.32 1.33 9.64 1.66 11 2 C11 3.32 11 4.64 11 6 C6.71 6 2.42 6 -2 6 C-1.34 4.02 -0.68 2.04 0 0 Z " fill="#51A2C5" transform="translate(68,80)"/>
<path d="M0 0 C-0.25 2.375 -0.25 2.375 -1 5 C-4.17869962 7.19619246 -6.49903485 7.11854805 -10.25 6.625 C-11.14203125 6.51414062 -12.0340625 6.40328125 -12.953125 6.2890625 C-13.96632813 6.14597656 -13.96632813 6.14597656 -15 6 C-12.15344131 4.55722368 -9.28360325 3.18824896 -6.375 1.875 C-5.59898438 1.52179688 -4.82296875 1.16859375 -4.0234375 0.8046875 C-2 0 -2 0 0 0 Z " fill="#70B1CF" transform="translate(113,65)"/>
<path d="M0 0 C2.4375 0.8125 2.4375 0.8125 5 2 C5.33 2.99 5.66 3.98 6 5 C5.34 5 4.68 5 4 5 C4 6.65 4 8.3 4 10 C2.68 10 1.36 10 0 10 C0 6.7 0 3.4 0 0 Z " fill="#A3CADA" transform="translate(55,27)"/>
<path d="M0 0 C2.97 0.33 5.94 0.66 9 1 C8.67 2.65 8.34 4.3 8 6 C5.03 5.67 2.06 5.34 -1 5 C-0.67 3.35 -0.34 1.7 0 0 Z " fill="#A7CDDF" transform="translate(68,57)"/>
<path d="M0 0 C0.33 2.31 0.66 4.62 1 7 C0.67 5.68 0.34 4.36 0 3 C-0.99 3.495 -0.99 3.495 -2 4 C-2.65772428 7.02934491 -2.65772428 7.02934491 -3 10 C-3.33 10 -3.66 10 -4 10 C-4 8.35 -4 6.7 -4 5 C-5.32 5.33 -6.64 5.66 -8 6 C-6.15596224 0.86303767 -5.73213298 0 0 0 Z " fill="#8BAFC4" transform="translate(53,8)"/>
<path d="M0 0 C1.98 0.495 1.98 0.495 4 1 C3.25 7.75 3.25 7.75 1 10 C0.34 9.67 -0.32 9.34 -1 9 C-1.125 2.25 -1.125 2.25 0 0 Z " fill="#D1E9F0" transform="translate(114,11)"/>
<path d="M0 0 C0.33 0 0.66 0 1 0 C1 1.98 1 3.96 1 6 C2.32 6 3.64 6 5 6 C4.835 6.928125 4.67 7.85625 4.5 8.8125 C3.92251612 11.95621353 3.92251612 11.95621353 4 15 C3.34 15 2.68 15 2 15 C-0.10428384 9.87080814 -0.21755666 5.4389165 0 0 Z " fill="#B6D2DE" transform="translate(54,31)"/>
<path d="M0 0 C0.33 0.66 0.66 1.32 1 2 C1.66 2 2.32 2 3 2 C2.67 3.65 2.34 5.3 2 7 C2.66 7 3.32 7 4 7 C4 7.66 4 8.32 4 9 C2.68 9 1.36 9 0 9 C0 8.34 0 7.68 0 7 C-0.99 6.67 -1.98 6.34 -3 6 C-3.33 5.67 -3.66 5.34 -4 5 C-4 4.01 -4 3.02 -4 2 C-2.68 1.34 -1.36 0.68 0 0 Z " fill="#A8D3E2" transform="translate(106,27)"/>
<path d="M0 0 C0 1.32 0 2.64 0 4 C-2.31 4.33 -4.62 4.66 -7 5 C-7.33 3.35 -7.66 1.7 -8 0 C-4.71023192 -1.09658936 -3.28696233 -0.79953138 0 0 Z " fill="#A0CCE0" transform="translate(140,49)"/>
<path d="M0 0 C1.98 0 3.96 0 6 0 C7.85776765 3.13498292 8.20140476 5.37471432 8 9 C6.35 9 4.7 9 3 9 C3.99 8.67 4.98 8.34 6 8 C5.34 6.68 4.68 5.36 4 4 C3.34 4 2.68 4 2 4 C2 3.34 2 2.68 2 2 C1.34 2 0.68 2 0 2 C0 1.34 0 0.68 0 0 Z " fill="#90CFE9" transform="translate(60,73)"/>
<path d="M0 0 C2.0839403 0.11443603 4.16716493 0.24195547 6.25 0.375 C7.41015625 0.44460937 8.5703125 0.51421875 9.765625 0.5859375 C12.70694334 0.96248308 14.49949011 1.4774123 17 3 C17 3.66 17 4.32 17 5 C14.33333333 5 11.66666667 5 9 5 C8.67 4.67 8.34 4.34 8 4 C8 3.34 8 2.68 8 2 C7.01 2.33 6.02 2.66 5 3 C2.3125 2.0625 2.3125 2.0625 0 1 C0 0.67 0 0.34 0 0 Z " fill="#7BB7CD" transform="translate(95,16)"/>
<path d="M0 0 C0.33 2.97 0.66 5.94 1 9 C0.01 9.33 -0.98 9.66 -2 10 C-3.49821059 6.62902617 -4 4.79557881 -4 1 C-2 0 -2 0 0 0 Z " fill="#DAF0F5" transform="translate(49,13)"/>
<path d="M0 0 C1.32 0.66 2.64 1.32 4 2 C3.40138258 4.35171131 2.73075648 6.6859378 2 9 C1.01 9.495 1.01 9.495 0 10 C-0.66 9.67 -1.32 9.34 -2 9 C-1.34 6.03 -0.68 3.06 0 0 Z " fill="#DBF1F6" transform="translate(128,18)"/>
<path d="M0 0 C1.45792884 -0.05399736 2.91642712 -0.09279177 4.375 -0.125 C5.18710938 -0.14820312 5.99921875 -0.17140625 6.8359375 -0.1953125 C9 0 9 0 11 2 C10.625 4.125 10.625 4.125 10 6 C9.34 6 8.68 6 8 6 C7.67 5.01 7.34 4.02 7 3 C4.69 2.67 2.38 2.34 0 2 C0 1.34 0 0.68 0 0 Z " fill="#98CBE0" transform="translate(109,73)"/>
<path d="M0 0 C4.875 4.75 4.875 4.75 6 7 C4.1875 7.6875 4.1875 7.6875 2 8 C-0.18025682 6.4657452 -0.88790525 5.35666511 -1.6875 2.8125 C-1.790625 2.214375 -1.89375 1.61625 -2 1 C-1.34 0.67 -0.68 0.34 0 0 Z " fill="#DAF0F5" transform="translate(21,30)"/>
<path d="M0 0 C-2.90600261 1.25664978 -4.79604584 2 -8 2 C-7.67 3.65 -7.34 5.3 -7 7 C-10.35595828 6.40072174 -12.37801226 5.15377564 -15 3 C-14.67 2.34 -14.34 1.68 -14 1 C-13.01 1.33 -12.02 1.66 -11 2 C-9.01271581 1.43210026 -9.01271581 1.43210026 -7 0.5 C-3.33333333 -1.11111111 -3.33333333 -1.11111111 0 0 Z " fill="#79B9CF" transform="translate(70,17)"/>
<path d="M0 0 C3.63 0 7.26 0 11 0 C10.67 0.99 10.34 1.98 10 3 C6.4375 4.1875 6.4375 4.1875 3 5 C2.87625 4.360625 2.7525 3.72125 2.625 3.0625 C2.315625 2.0415625 2.315625 2.0415625 2 1 C1.34 0.67 0.68 0.34 0 0 Z " fill="#77C3D8" transform="translate(82,16)"/>
<path d="M0 0 C1.65 0 3.3 0 5 0 C4.01 2.97 3.02 5.94 2 9 C1.34 9 0.68 9 0 9 C0 6.03 0 3.06 0 0 Z " fill="#393E50" transform="translate(57,75)"/>
<path d="M0 0 C2.64 0.66 5.28 1.32 8 2 C7.67 3.32 7.34 4.64 7 6 C4.03 5.505 4.03 5.505 1 5 C0.67 3.35 0.34 1.7 0 0 Z " fill="#76ADC9" transform="translate(39,57)"/>
<path d="M0 0 C0.99 0 1.98 0 3 0 C3.33 2.31 3.66 4.62 4 7 C0.25 9 0.25 9 -2 9 C-2.25 3.375 -2.25 3.375 0 0 Z " fill="#B8DAE8" transform="translate(84,53)"/>
<path d="M0 0 C1.98 0.495 1.98 0.495 4 1 C4.33 2.32 4.66 3.64 5 5 C4.01 5.495 4.01 5.495 3 6 C3.33 6.66 3.66 7.32 4 8 C3.01 8.33 2.02 8.66 1 9 C-1 6 -1 6 -0.625 2.8125 C-0.41875 1.884375 -0.2125 0.95625 0 0 Z " fill="#CDE3EC" transform="translate(61,39)"/>
<path d="M0 0 C2 2 2 2 2 5 C1.01 5.33 0.02 5.66 -1 6 C-1.66 6.66 -2.32 7.32 -3 8 C-3.66 8 -4.32 8 -5 8 C-4.1875 4.5625 -4.1875 4.5625 -3 1 C-2.01 0.67 -1.02 0.34 0 0 Z " fill="#63A0BB" transform="translate(64,76)"/>
<path d="M0 0 C-0.185625 0.61875 -0.37125 1.2375 -0.5625 1.875 C-1.23686176 4.04160178 -1.23686176 4.04160178 0 6 C-1.32 6.33 -2.64 6.66 -4 7 C-3.67 6.01 -3.34 5.02 -3 4 C-4.32 3.67 -5.64 3.34 -7 3 C-7 2.34 -7 1.68 -7 1 C-3.375 -1.125 -3.375 -1.125 0 0 Z " fill="#94C5D7" transform="translate(112,25)"/>
<path d="M0 0 C1.64826111 2.96687001 2.44271087 5.65626525 3 9 C1.68 9 0.36 9 -1 9 C-1.625 6.1875 -1.625 6.1875 -2 3 C-1.34 2.01 -0.68 1.02 0 0 Z " fill="#DBF0F5" transform="translate(39,18)"/>
<path d="M0 0 C0.66 0.66 1.32 1.32 2 2 C2.99 1.67 3.98 1.34 5 1 C5.99 1.33 6.98 1.66 8 2 C8 3.65 8 5.3 8 7 C5.36 6.01 2.72 5.02 0 4 C0 2.68 0 1.36 0 0 Z " fill="#6B9DBB" transform="translate(31,54)"/>
<path d="M0 0 C2.475 0.495 2.475 0.495 5 1 C5.33 2.65 5.66 4.3 6 6 C6.99 6 7.98 6 9 6 C9 6.66 9 7.32 9 8 C6.03 7.67 3.06 7.34 0 7 C0.99 5.68 1.98 4.36 3 3 C2.01 2.01 1.02 1.02 0 0 Z " fill="#6B98B5" transform="translate(12,46)"/>
<path d="M0 0 C0 0.66 0 1.32 0 2 C-0.66 2 -1.32 2 -2 2 C-2.66 3.32 -3.32 4.64 -4 6 C-4.99 6 -5.98 6 -7 6 C-7 5.34 -7 4.68 -7 4 C-7.99 3.34 -8.98 2.68 -10 2 C-6.49223216 0.39644899 -3.85645121 -0.22036864 0 0 Z " fill="#A3C8DD" transform="translate(27,42)"/>
<path d="M0 0 C0.99 0.33 1.98 0.66 3 1 C2.34 2.98 1.68 4.96 1 7 C-0.32 7 -1.64 7 -3 7 C-1.125 1.125 -1.125 1.125 0 0 Z " fill="#DCF1F6" transform="translate(133,22)"/>
<path d="M0 0 C2.97 0 5.94 0 9 0 C9 1.32 9 2.64 9 4 C6.98177083 3.70703125 4.96354167 3.4140625 2.9453125 3.12109375 C0.91859333 2.8315703 0.91859333 2.8315703 -1 4 C-0.67 2.68 -0.34 1.36 0 0 Z " fill="#9ACADF" transform="translate(125,73)"/>
<path d="M0 0 C1.98 0 3.96 0 6 0 C6.33 0.99 6.66 1.98 7 3 C7.99 3 8.98 3 10 3 C10 4.98 10 6.96 10 9 C7.74754119 6.31158141 6.11786042 4.35358125 5 1 C3.68 1 2.36 1 1 1 C0.67 1.66 0.34 2.32 0 3 C0 2.01 0 1.02 0 0 Z " fill="#404754" transform="translate(31,72)"/>
<path d="M0 0 C0 0.99 0 1.98 0 3 C-1.43344 3.53190541 -2.87195367 4.05015258 -4.3125 4.5625 C-5.51326172 4.99755859 -5.51326172 4.99755859 -6.73828125 5.44140625 C-9 6 -9 6 -12 5 C-10.56705502 4.15885829 -9.12845595 3.32734313 -7.6875 2.5 C-6.88699219 2.0359375 -6.08648437 1.571875 -5.26171875 1.09375 C-3 0 -3 0 0 0 Z " fill="#8CB6CB" transform="translate(26,39)"/>
<path d="M0 0 C-2.75264252 3.05849168 -5.00751252 4.87391379 -9 6 C-9.99 5.67 -10.98 5.34 -12 5 C-10.66272409 2.32544817 -9.26711677 2.01118615 -6.5625 0.8125 C-5.75941406 0.44769531 -4.95632812 0.08289063 -4.12890625 -0.29296875 C-2 -1 -2 -1 0 0 Z " fill="#7DC2D6" transform="translate(73,16)"/>
<path d="M0 0 C0 0.66 0 1.32 0 2 C-1.2065625 2.37125 -1.2065625 2.37125 -2.4375 2.75 C-5.171081 3.72238859 -5.171081 3.72238859 -5.8125 6.125 C-5.9053125 7.053125 -5.9053125 7.053125 -6 8 C-6.66 8 -7.32 8 -8 8 C-8.36075949 3.55063291 -8.36075949 3.55063291 -6.8125 1.1875 C-4.44017475 -0.36678206 -2.77958655 -0.22537188 0 0 Z " fill="#94CFE7" transform="translate(104,73)"/>
<path d="M0 0 C1.98 0 3.96 0 6 0 C6 0.99 6 1.98 6 3 C6.66 3.33 7.32 3.66 8 4 C5.75 4.6875 5.75 4.6875 3 5 C0.6875 3.5625 0.6875 3.5625 -1 2 C-0.67 1.34 -0.34 0.68 0 0 Z " fill="#C0DFEC" transform="translate(71,54)"/>
<path d="M0 0 C0.66 0.99 1.32 1.98 2 3 C0.25 5.0625 0.25 5.0625 -2 7 C-4.25 6.75 -4.25 6.75 -6 6 C-6.33 4.68 -6.66 3.36 -7 2 C-6.401875 2.185625 -5.80375 2.37125 -5.1875 2.5625 C-2.83591238 3.22093687 -2.83591238 3.22093687 0 2 C0 1.34 0 0.68 0 0 Z " fill="#C1DFEB" transform="translate(99,51)"/>
<path d="M0 0 C2.97 0.495 2.97 0.495 6 1 C6.33 2.32 6.66 3.64 7 5 C3.62537285 4.45276317 1.91765 3.9451 -1 2 C-0.67 1.34 -0.34 0.68 0 0 Z " fill="#90B3C7" transform="translate(107,5)"/>
<path d="M0 0 C2.3431213 0.25561323 4.67843403 0.59270772 7 1 C7.33 1.66 7.66 2.32 8 3 C7.360625 3.12375 6.72125 3.2475 6.0625 3.375 C5.381875 3.58125 4.70125 3.7875 4 4 C3.67 4.66 3.34 5.32 3 6 C3 5.01 3 4.02 3 3 C2.01 3 1.02 3 0 3 C0 2.01 0 1.02 0 0 Z " fill="#7EB6D0" transform="translate(52,57)"/>
<path d="M0 0 C0.66 0.33 1.32 0.66 2 1 C2 1.99 2 2.98 2 4 C-2.625 6.125 -2.625 6.125 -6 5 C-4.68 4.34 -3.36 3.68 -2 3 C-2.33 2.34 -2.66 1.68 -3 1 C-2.01 0.67 -1.02 0.34 0 0 Z " fill="#90C7DF" transform="translate(107,58)"/>
<path d="M0 0 C1.65 1.65 3.3 3.3 5 5 C4.67 5.99 4.34 6.98 4 8 C2.35 6.68 0.7 5.36 -1 4 C-0.67 2.68 -0.34 1.36 0 0 Z " fill="#DAF0F6" transform="translate(17,33)"/>
<path d="M0 0 C1.70884005 1.62339805 3.37446717 3.29319053 5 5 C5 5.66 5 6.32 5 7 C4.01 7.33 3.02 7.66 2 8 C2 7.34 2 6.68 2 6 C1.34 6 0.68 6 0 6 C0 4.02 0 2.04 0 0 Z " fill="#405566" transform="translate(35,78)"/>
<path d="M0 0 C0.99 0 1.98 0 3 0 C3 1.65 3 3.3 3 5 C1.68 5.33 0.36 5.66 -1 6 C-1.042721 4.33388095 -1.04063832 2.66617115 -1 1 C-0.67 0.67 -0.34 0.34 0 0 Z " fill="#2B1245" transform="translate(101,76)"/>
<path d="M0 0 C0 0.33 0 0.66 0 1 C-0.969375 1.12375 -1.93875 1.2475 -2.9375 1.375 C-4.4534375 1.684375 -4.4534375 1.684375 -6 2 C-6.33 2.66 -6.66 3.32 -7 4 C-7.66 4 -8.32 4 -9 4 C-9 3.34 -9 2.68 -9 2 C-10.32 2 -11.64 2 -13 2 C-13.33 2.66 -13.66 3.32 -14 4 C-14 3.01 -14 2.02 -14 1 C-9.23692563 0.04738513 -4.8333472 -0.08333357 0 0 Z " fill="#465665" transform="translate(67,71)"/>
<path d="M0 0 C0.763125 0.20625 1.52625 0.4125 2.3125 0.625 C2.3125 1.285 2.3125 1.945 2.3125 2.625 C0.9925 2.625 -0.3275 2.625 -1.6875 2.625 C-2.0175 3.285 -2.3475 3.945 -2.6875 4.625 C-3.6775 3.635 -4.6675 2.645 -5.6875 1.625 C-2.6875 -0.375 -2.6875 -0.375 0 0 Z " fill="#7EB7D1" transform="translate(113.6875,57.375)"/>
<path d="M0 0 C2.125 0.9375 2.125 0.9375 4 2 C4 3.32 4 4.64 4 6 C3.01 6 2.02 6 1 6 C0.67 5.01 0.34 4.02 0 3 C-0.66 2.34 -1.32 1.68 -2 1 C-1.34 0.67 -0.68 0.34 0 0 Z " fill="#9FCEE3" transform="translate(123,52)"/>
<path d="M0 0 C2.64 0.33 5.28 0.66 8 1 C7 4 7 4 4.9375 5.1875 C4.298125 5.455625 3.65875 5.72375 3 6 C2.01 4.02 1.02 2.04 0 0 Z " fill="#81AFC7" transform="translate(149,43)"/>
<path d="M0 0 C0.33 0.66 0.66 1.32 1 2 C2.65 2 4.3 2 6 2 C6 2.33 6 2.66 6 3 C4.35 3 2.7 3 1 3 C0.67 3.66 0.34 4.32 0 5 C0 4.34 0 3.68 0 3 C-1.98 3.33 -3.96 3.66 -6 4 C-6 3.01 -6 2.02 -6 1 C-3.03 1.495 -3.03 1.495 0 2 C0 1.34 0 0.68 0 0 Z " fill="#A5BAC2" transform="translate(88,34)"/>
<path d="M0 0 C1.65 0 3.3 0 5 0 C5.33 0.66 5.66 1.32 6 2 C8.01669827 3.13350534 8.01669827 3.13350534 10 4 C7.36 4 4.72 4 2 4 C1.34 2.68 0.68 1.36 0 0 Z " fill="#6396B8" transform="translate(82,72)"/>
<path d="M0 0 C2.31 0.33 4.62 0.66 7 1 C7 1.66 7 2.32 7 3 C5.68 3 4.36 3 3 3 C3 3.66 3 4.32 3 5 C2.34 5 1.68 5 1 5 C0.67 3.35 0.34 1.7 0 0 Z " fill="#A0CCE0" transform="translate(20,49)"/>
<path d="M0 0 C5.75 -0.125 5.75 -0.125 8 1 C7.67 1.99 7.34 2.98 7 4 C2.25 3.125 2.25 3.125 0 2 C0 1.34 0 0.68 0 0 Z " fill="#7EA7C1" transform="translate(5,48)"/>
<path d="M0 0 C0.99 0.66 1.98 1.32 3 2 C2.67 2.99 2.34 3.98 2 5 C0.02 5.33 -1.96 5.66 -4 6 C-2.68 4.02 -1.36 2.04 0 0 Z " fill="#D4EDF5" transform="translate(153,36)"/>
<path d="M0 0 C1.32 0.33 2.64 0.66 4 1 C4 1.66 4 2.32 4 3 C4.99 3.33 5.98 3.66 7 4 C5.02 4.99 5.02 4.99 3 6 C1.5 4.6875 1.5 4.6875 0 3 C0 2.01 0 1.02 0 0 Z " fill="#9ED2E3" transform="translate(62,22)"/>
<path d="M0 0 C0.33 0.66 0.66 1.32 1 2 C1.5775 1.773125 2.155 1.54625 2.75 1.3125 C5 1 5 1 7.25 2.3125 C7.8275 2.869375 8.405 3.42625 9 4 C9 4.66 9 5.32 9 6 C8.34 6 7.68 6 7 6 C7 5.34 7 4.68 7 4 C5.68 4.33 4.36 4.66 3 5 C3 4.34 3 3.68 3 3 C2.01 3.33 1.02 3.66 0 4 C0 2.68 0 1.36 0 0 Z " fill="#9FCCDC" transform="translate(50,18)"/>
<path d="M0 0 C2.31 0 4.62 0 7 0 C7 0.33 7 0.66 7 1 C5.02 1 3.04 1 1 1 C1 1.66 1 2.32 1 3 C1.99 3.33 2.98 3.66 4 4 C2.35 4.33 0.7 4.66 -1 5 C-0.67 3.35 -0.34 1.7 0 0 Z " fill="#415363" transform="translate(127,79)"/>
<path d="M0 0 C1.32 0.99 2.64 1.98 4 3 C4.25 6.1875 4.25 6.1875 4 9 C3.01 9.495 3.01 9.495 2 10 C1.34 6.7 0.68 3.4 0 0 Z " fill="#7DBAD4" transform="translate(104,73)"/>
<path d="M0 0 C1.98 0 3.96 0 6 0 C6 1.32 6 2.64 6 4 C5.01 4 4.02 4 3 4 C2.34 4.66 1.68 5.32 1 6 C-0.08744934 3.82510133 0 2.41588781 0 0 Z " fill="#B4D4E3" transform="translate(65,54)"/>
<path d="M0 0 C2.475 0.495 2.475 0.495 5 1 C5 1.99 5 2.98 5 4 C3.35 4 1.7 4 0 4 C0 2.68 0 1.36 0 0 Z " fill="#426D84" transform="translate(86,83)"/>
<path d="M0 0 C0.66 0.33 1.32 0.66 2 1 C1.67 2.65 1.34 4.3 1 6 C1.66 6 2.32 6 3 6 C3 6.66 3 7.32 3 8 C1.35 8 -0.3 8 -2 8 C-1.34 5.36 -0.68 2.72 0 0 Z " fill="#59AED1" transform="translate(47,78)"/>
<path d="M0 0 C2.475 0.495 2.475 0.495 5 1 C5 1.99 5 2.98 5 4 C3.35 4 1.7 4 0 4 C0 2.68 0 1.36 0 0 Z " fill="#414A5B" transform="translate(75,75)"/>
<path d="M0 0 C1.2065625 0.0309375 1.2065625 0.0309375 2.4375 0.0625 C2.1075 1.0525 1.7775 2.0425 1.4375 3.0625 C0.4475 3.0625 -0.5425 3.0625 -1.5625 3.0625 C-1.8925 4.7125 -2.2225 6.3625 -2.5625 8.0625 C-2.8925 8.0625 -3.2225 8.0625 -3.5625 8.0625 C-3.60491723 5.72955225 -3.60342937 3.39547433 -3.5625 1.0625 C-2.5625 0.0625 -2.5625 0.0625 0 0 Z " fill="#3A3D50" transform="translate(128.5625,74.9375)"/>
<path d="M0 0 C1.50433594 0.01353516 1.50433594 0.01353516 3.0390625 0.02734375 C3.80992188 0.03894531 4.58078125 0.05054687 5.375 0.0625 C5.375 0.3925 5.375 0.7225 5.375 1.0625 C2.075 1.0625 -1.225 1.0625 -4.625 1.0625 C-4.625 2.0525 -4.625 3.0425 -4.625 4.0625 C-5.615 3.7325 -6.605 3.4025 -7.625 3.0625 C-7.625 2.4025 -7.625 1.7425 -7.625 1.0625 C-4.98041621 -0.25979189 -2.94738699 -0.03427194 0 0 Z " fill="#5F8DA6" transform="translate(74.625,70.9375)"/>
<path d="M0 0 C0.99 0.99 1.98 1.98 3 3 C2.67 3.99 2.34 4.98 2 6 C1.01 6 0.02 6 -1 6 C-1.33 4.35 -1.66 2.7 -2 1 C-1.34 0.67 -0.68 0.34 0 0 Z " fill="#90BCD4" transform="translate(25,44)"/>
<path d="M0 0 C-0.33 1.32 -0.66 2.64 -1 4 C-2.32 4.33 -3.64 4.66 -5 5 C-5.33 4.01 -5.66 3.02 -6 2 C-2.25 0 -2.25 0 0 0 Z " fill="#92BED1" transform="translate(53,21)"/>
<path d="M0 0 C-2.71182212 2.60334924 -3.89133813 2.99456691 -7.75 3.1875 C-8.8225 3.125625 -9.895 3.06375 -11 3 C-8.21756596 -1.17365106 -4.53441502 -0.22300402 0 0 Z " fill="#9DC2D2" transform="translate(82,2)"/>
<path d="M0 0 C1.7074998 1.28062485 3.37373596 2.61767557 5 4 C5 4.66 5 5.32 5 6 C2.11424181 5.60196439 1.17810487 5.20990931 -0.75 2.9375 C-1.1625 2.298125 -1.575 1.65875 -2 1 C-1.34 0.67 -0.68 0.34 0 0 Z " fill="#58ABCF" transform="translate(117,80)"/>
<path d="M0 0 C1.32 0 2.64 0 4 0 C4.33 0.66 4.66 1.32 5 2 C5.66 1.67 6.32 1.34 7 1 C6.67 2.98 6.34 4.96 6 7 C5.34 6.67 4.68 6.34 4 6 C3.375 3.4375 3.375 3.4375 3 1 C2.01 0.67 1.02 0.34 0 0 Z " fill="#3C4150" transform="translate(46,72)"/>
<path d="M0 0 C2.1875 1.4375 2.1875 1.4375 4 3 C1.36 3.33 -1.28 3.66 -4 4 C-3.67 3.01 -3.34 2.02 -3 1 C-2.01 0.67 -1.02 0.34 0 0 Z " fill="#6C9AB6" transform="translate(154,49)"/>
<path d="M0 0 C-0.33 2.31 -0.66 4.62 -1 7 C-2.32 6.01 -3.64 5.02 -5 4 C-1.125 0 -1.125 0 0 0 Z " fill="#8CB2C6" transform="translate(12,33)"/>
<path d="M0 0 C0.33 0.66 0.66 1.32 1 2 C1.66 2 2.32 2 3 2 C3 2.66 3 3.32 3 4 C3.66 4 4.32 4 5 4 C5 4.66 5 5.32 5 6 C3.68 6 2.36 6 1 6 C1 5.34 1 4.68 1 4 C0.01 3.67 -0.98 3.34 -2 3 C-1.34 3 -0.68 3 0 3 C0 2.01 0 1.02 0 0 Z " fill="#B7D9E6" transform="translate(105,30)"/>
<path d="M0 0 C4.75 0.75 4.75 0.75 7 3 C6.67 3.99 6.34 4.98 6 6 C5.34 6 4.68 6 4 6 C4 5.01 4 4.02 4 3 C2.68 2.34 1.36 1.68 0 1 C0 0.67 0 0.34 0 0 Z " fill="#A6D1E0" transform="translate(59,27)"/>
<path d="M0 0 C0.99 0 1.98 0 3 0 C4.35439668 2.70879335 4.06501451 5.00933268 4 8 C3.67 8 3.34 8 3 8 C3 6.35 3 4.7 3 3 C1.68 3.33 0.36 3.66 -1 4 C-0.67 2.68 -0.34 1.36 0 0 Z " fill="#99BFD0" transform="translate(46,10)"/>
<path d="M0 0 C7.42857143 -0.28571429 7.42857143 -0.28571429 11 2 C10.071875 1.979375 9.14375 1.95875 8.1875 1.9375 C4.97713989 1.84230396 4.97713989 1.84230396 2 3 C1.34 2.01 0.68 1.02 0 0 Z " fill="#83A2B9" transform="translate(93,2)"/>
<path d="M0 0 C0.99 0.99 1.98 1.98 3 3 C2.67 3.99 2.34 4.98 2 6 C1.34 6 0.68 6 0 6 C0 5.01 0 4.02 0 3 C-0.99 2.67 -1.98 2.34 -3 2 C-2.01 1.34 -1.02 0.68 0 0 Z " fill="#A5D1E5" transform="translate(129,50)"/>
<path d="M0 0 C0.33 0.66 0.66 1.32 1 2 C1.99 2.33 2.98 2.66 4 3 C3.34 3.66 2.68 4.32 2 5 C-0.625 4.625 -0.625 4.625 -3 4 C-2.67 3.01 -2.34 2.02 -2 1 C-1.34 0.67 -0.68 0.34 0 0 Z " fill="#92BACE" transform="translate(144,38)"/>
</svg>
