<?xml version="1.0" encoding="UTF-8"?>
<svg version="1.1" xmlns="http://www.w3.org/2000/svg" width="2000" height="482">
<path d="M0 0 C0.00135653 0.76896646 0.00271306 1.53793292 0.00411069 2.33020139 C0.08486688 47.96668891 0.17586467 93.60314625 0.28005161 139.23958661 C0.29256957 144.72661877 0.30500249 150.21365112 0.31738281 155.70068359 C0.3210818 157.33914771 0.3210818 157.33914771 0.32485552 159.01071212 C0.36451371 176.6669761 0.39729167 194.32324643 0.42749982 211.97952881 C0.45868041 230.11408338 0.49731777 248.24861115 0.54279006 266.38313556 C0.57058694 277.56132096 0.59265786 288.73948691 0.60726251 299.91769746 C0.61785396 307.59658238 0.63572791 315.27542949 0.65916704 322.95428583 C0.67245367 327.37590587 0.68268471 331.79747324 0.68421364 336.2191143 C0.47901488 376.35801469 0.47901488 376.35801469 12.08203125 414.421875 C13 417 13 417 13 423 C-7.79 423 -28.58 423 -50 423 C-53.3 414.09 -56.6 405.18 -60 396 C-61.835625 397.629375 -63.67125 399.25875 -65.5625 400.9375 C-89.55594166 421.54666165 -119.41545972 430.71590511 -150.9140625 428.72290039 C-180.08115542 426.08107937 -205.98753689 410.94277367 -225 389 C-252.83685524 353.75174749 -261.40713213 305.81592983 -256.2734375 261.9609375 C-254.65341717 250.27321461 -252.08143509 239.07134151 -248 228 C-247.35611328 226.16501953 -247.35611328 226.16501953 -246.69921875 224.29296875 C-241.18011771 209.44580962 -232.78262736 196.38332584 -223 184 C-222.46246094 183.23300781 -221.92492188 182.46601563 -221.37109375 181.67578125 C-220.69240234 180.84626953 -220.69240234 180.84626953 -220 180 C-219.34 180 -218.68 180 -218 180 C-217.77570313 179.44441406 -217.55140625 178.88882813 -217.3203125 178.31640625 C-205.29749896 157.22312688 -172.67029568 144.8796179 -151 138 C-149.5459375 137.50886719 -149.5459375 137.50886719 -148.0625 137.0078125 C-125.86256632 130.10591004 -85.35686229 125.32156886 -64 136 C-64 98.38 -64 60.76 -64 22 C-43.50031961 14.02790207 -43.50031961 14.02790207 -36.25 11.5625 C-30.80653395 9.69076333 -25.3812685 7.78393601 -19.984375 5.78125 C-18.98631836 5.41185303 -17.98826172 5.04245605 -16.95996094 4.66186523 C-15.02373593 3.94272789 -13.0893984 3.21848279 -11.15722656 2.48852539 C-10.2803418 2.16360107 -9.40345703 1.83867676 -8.5 1.50390625 C-7.7265625 1.21330322 -6.953125 0.9227002 -6.15625 0.62329102 C-4 0 -4 0 0 0 Z M-162 208 C-162.79921875 208.7321875 -163.5984375 209.464375 -164.421875 210.21875 C-186.07810852 230.85757657 -191.22912037 259.19101274 -191.94775391 287.84912109 C-192.35404146 312.35167824 -186.83845788 335.73431279 -171 355 C-170.35546875 355.84046875 -169.7109375 356.6809375 -169.046875 357.546875 C-160.0136693 368.37293069 -145.92725567 375.50617734 -132 377 C-112.13790974 377.88688461 -95.85871914 373.88190549 -79 363 C-78.41402723 362.64198095 -77.82805446 362.28396189 -77.22432494 361.91509378 C-68.76866385 356.66258087 -68.76866385 356.66258087 -63.73230362 348.41237831 C-63.27827346 344.17050506 -63.26188211 340.13377892 -63.41064453 335.88012695 C-63.41460117 334.28246918 -63.41236199 332.68478602 -63.40444946 331.08714294 C-63.40045648 326.77987462 -63.4823285 322.4781423 -63.58048487 318.17215371 C-63.6684301 313.6614624 -63.67625967 309.15062229 -63.69284058 304.63920593 C-63.73623313 296.11019204 -63.85094158 287.58371178 -63.99173343 279.05581015 C-64.14860661 269.3414681 -64.22528802 259.62700041 -64.29546952 249.91170561 C-64.44152812 229.93972671 -64.68752892 209.97002339 -65 190 C-68.17893042 189.33776316 -71.35987417 188.68573129 -74.54125977 188.03540039 C-75.43366615 187.84936501 -76.32607254 187.66332962 -77.24552155 187.4716568 C-84.54778376 185.98705911 -91.47039873 185.33555249 -98.9375 185.4375 C-100.71217651 185.45393555 -100.71217651 185.45393555 -102.52270508 185.47070312 C-124.56782656 186.00624829 -145.75810675 192.70118442 -162 208 Z " fill="#005694" transform="translate(1987,0)"/>
<path d="M0 0 C7.61182719 6.81763589 13.17420599 14.1140389 17.49755859 23.34130859 C18.01060547 24.37642578 18.52365234 25.41154297 19.05224609 26.47802734 C25.2194565 39.68690335 28.61179158 55.15850122 28.62886047 69.74740601 C28.63487274 71.61345238 28.63487274 71.61345238 28.64100647 73.51719666 C28.64053145 74.87832644 28.63999535 76.2394562 28.6394043 77.60058594 C28.64244011 79.04872238 28.64596273 80.49685788 28.64993286 81.94499207 C28.65779755 85.05728637 28.66295795 88.16956934 28.66622353 91.2818718 C28.672175 96.22926003 28.68875982 101.17657783 28.70756531 106.12393188 C28.71390269 107.82496448 28.72022831 109.52599712 28.72654247 111.2270298 C28.72970828 112.07897966 28.7328741 112.93092951 28.73613584 113.80869603 C28.77799422 125.31434562 28.81109736 136.81996304 28.82348633 148.32568359 C28.8319436 156.10048049 28.85471882 163.87510282 28.89284199 171.64981234 C28.91236094 175.74908814 28.92508993 179.84810453 28.92000771 183.94742966 C28.89441317 209.5045212 29.75269988 234.52579585 40.34863281 258.24658203 C41.63635119 261.13620696 42.49755859 263.13672291 42.49755859 266.34130859 C34.31793472 266.38759588 26.13836532 266.42315931 17.95864296 266.44493294 C14.16069547 266.4553818 10.36283742 266.46956096 6.56494141 266.4921875 C2.90154513 266.5138768 -0.76176498 266.52586891 -4.42522049 266.53106308 C-5.82470685 266.5347659 -7.22418836 266.54199637 -8.62363815 266.55276871 C-10.57977471 266.56723085 -12.5359975 266.56812506 -14.4921875 266.56835938 C-15.60693451 266.5728006 -16.72168152 266.57724182 -17.87020874 266.58181763 C-20.50244141 266.34130859 -20.50244141 266.34130859 -22.50244141 264.34130859 C-23.1976525 262.64537408 -23.82491416 260.9211866 -24.41259766 259.18505859 C-24.76257813 258.16283203 -25.11255859 257.14060547 -25.47314453 256.08740234 C-25.8334375 255.01619141 -26.19373047 253.94498047 -26.56494141 252.84130859 C-27.2839219 250.72636067 -28.00392323 248.61175942 -28.72509766 246.49755859 C-29.0422876 245.5571875 -29.35947754 244.61681641 -29.6862793 243.64794922 C-30.44438236 241.35471892 -30.44438236 241.35471892 -31.50244141 239.34130859 C-32.6490625 240.37578125 -32.6490625 240.37578125 -33.81884766 241.43115234 C-41.83929905 248.52085096 -50.15076833 254.15439225 -59.50244141 259.34130859 C-60.23978516 259.76025391 -60.97712891 260.17919922 -61.73681641 260.61083984 C-85.1691566 273.17818469 -116.25062889 275.83308878 -141.78051758 268.81738281 C-155.57307517 264.61318858 -167.87990422 258.14538799 -178.50244141 248.34130859 C-179.20626953 247.72900391 -179.91009766 247.11669922 -180.63525391 246.48583984 C-190.01738242 237.85796088 -196.28200863 226.2352555 -200.50244141 214.34130859 C-200.94523438 213.1328125 -200.94523438 213.1328125 -201.39697266 211.89990234 C-208.65577365 190.19501463 -207.48756511 163.04909354 -197.50244141 142.34130859 C-186.31354194 120.66281588 -166.99744344 105.98263347 -144.08056641 98.39599609 C-137.60767574 96.48804797 -131.09151916 94.80206885 -124.50244141 93.34130859 C-123.74116943 93.16905762 -122.97989746 92.99680664 -122.19555664 92.81933594 C-115.8340794 91.45332427 -109.55180508 90.77740862 -103.06494141 90.34130859 C-101.92637695 90.26154785 -100.7878125 90.18178711 -99.61474609 90.09960938 C-78.27214178 88.70840785 -56.87464724 88.10521475 -35.50244141 87.34130859 C-35.63972656 84.67172777 -35.78246529 82.00261712 -35.92822266 79.33349609 C-35.9848407 78.21624146 -35.9848407 78.21624146 -36.04260254 77.07641602 C-36.70908053 65.10582112 -38.23861094 51.53788137 -47.18994141 42.66943359 C-48.50244141 41.34130859 -48.50244141 41.34130859 -48.50244141 39.34130859 C-49.07220703 39.07060547 -49.64197266 38.79990234 -50.22900391 38.52099609 C-52.56467168 37.30901728 -54.68072986 35.91328923 -56.87744141 34.46630859 C-77.86716342 21.74809185 -105.35891312 25.44205523 -128.04003906 30.95849609 C-138.43949187 33.78816035 -148.070182 38.2838693 -157.68896484 43.08984375 C-158.53362305 43.51056152 -159.37828125 43.9312793 -160.24853516 44.36474609 C-160.99804443 44.74550293 -161.74755371 45.12625977 -162.51977539 45.51855469 C-164.50244141 46.34130859 -164.50244141 46.34130859 -167.50244141 46.34130859 C-167.99647461 45.37829834 -168.49050781 44.41528809 -168.99951172 43.4230957 C-170.84669188 39.82346913 -172.69598759 36.22493287 -174.54589844 32.62670898 C-175.34366956 31.0742677 -176.14087969 29.52153799 -176.9375 27.96850586 C-178.0878517 25.72611191 -179.24026974 23.48479014 -180.39306641 21.24365234 C-180.74427551 20.55794662 -181.09548462 19.87224091 -181.45733643 19.16575623 C-181.79738708 18.50560013 -182.13743774 17.84544403 -182.48779297 17.1652832 C-182.81557739 16.52742889 -183.14336182 15.88957458 -183.4810791 15.23239136 C-184.52309342 13.30307078 -185.66646362 11.46050874 -186.82177734 9.59741211 C-188.50244141 6.34130859 -188.50244141 6.34130859 -188.53564453 4.06542969 C-187.07858789 1.63401806 -185.52613063 0.96262346 -182.97119141 -0.24462891 C-181.5492749 -0.92428711 -181.5492749 -0.92428711 -180.09863281 -1.61767578 C-179.07688965 -2.08496094 -178.05514648 -2.55224609 -177.00244141 -3.03369141 C-175.44468994 -3.76168945 -175.44468994 -3.76168945 -173.85546875 -4.50439453 C-165.23736906 -8.46667825 -156.52013452 -11.7465188 -147.50244141 -14.65869141 C-146.00239888 -15.2002403 -144.50239079 -15.74188459 -143.00244141 -16.28369141 C-98.42044297 -30.63774393 -37.44014373 -32.1405594 0 0 Z M-64.16333008 132.97607422 C-66.24448502 133.05216881 -68.32588135 133.12195523 -70.4074707 133.18505859 C-81.25108345 133.51624028 -91.86483423 134.09731392 -102.52587891 136.20849609 C-103.32101395 136.36590271 -104.11614899 136.52330933 -104.93537903 136.68548584 C-115.72320891 139.02897393 -127.48645333 144.05914409 -133.92041016 153.39990234 C-135.25977747 155.66622182 -136.40342284 157.95003743 -137.50244141 160.34130859 C-137.82341797 160.98326172 -138.14439453 161.62521484 -138.47509766 162.28662109 C-142.81939747 172.59170436 -141.77775117 186.61412475 -137.76025391 196.79833984 C-132.50398458 207.42514522 -124.38953415 213.99378912 -113.52978516 218.39599609 C-94.04816482 224.47928915 -73.46215566 218.82870962 -55.97509766 209.78662109 C-51.22007474 207.00722381 -46.82266006 203.74941261 -42.50244141 200.34130859 C-41.91681427 200.00271317 -41.33118713 199.66411774 -40.72781372 199.31526184 C-37.36331633 197.09254454 -35.73012934 195.42776501 -34.88743591 191.4066925 C-34.69146388 187.65686134 -34.71453781 183.94306211 -34.81884766 180.19287109 C-34.83191772 178.8114168 -34.84187525 177.42992986 -34.84886169 176.0484314 C-34.87547893 172.42752116 -34.9441383 168.80860394 -35.02178955 165.18847656 C-35.09364077 161.48839274 -35.12541932 157.78798402 -35.16064453 154.08740234 C-35.23552253 146.83779974 -35.35485089 139.58983432 -35.50244141 132.34130859 C-45.06713184 132.29516981 -54.60642509 132.61338897 -64.16333008 132.97607422 Z " fill="#005694" transform="translate(954.50244140625,156.65869140625)"/>
<path d="M0 0 C15.62348209 13.35177917 26.13648453 30.16577433 34 49 C34.61101562 50.45792969 34.61101562 50.45792969 35.234375 51.9453125 C46.17174561 80.13007522 46 110.18645052 46 140 C-13.73 140 -73.46 140 -135 140 C-130.62469613 164.06417128 -125.58867929 188.30635388 -104.671875 203.50390625 C-97.56660078 208.38001674 -90.13526434 212.12206526 -82 215 C-81.13632813 215.30679688 -80.27265625 215.61359375 -79.3828125 215.9296875 C-49.91026392 225.57024077 -14.60012509 217.36357405 12.26953125 203.859375 C12.98496094 203.49328125 13.70039062 203.1271875 14.4375 202.75 C18 201 18 201 20 201 C20.4031543 201.92224365 20.80630859 202.8444873 21.22167969 203.79467773 C22.73475092 207.25573557 24.24818357 210.71663527 25.76171875 214.17749023 C26.41350823 215.66800782 27.06520306 217.15856679 27.71679688 218.64916992 C28.34977054 220.09714572 28.98294682 221.54503297 29.61633301 222.99282837 C30.23399892 224.40550721 30.85078753 225.81856997 31.4666748 227.23202515 C33.37069591 231.59461317 35.3259358 235.92833309 37.37988281 240.22290039 C38 242 38 242 38 246 C20.34074918 256.83177538 2.17888238 263.43470143 -18 268 C-18.81098145 268.1863501 -19.62196289 268.3727002 -20.45751953 268.56469727 C-38.8896726 272.54937679 -58.28587841 272.58490932 -77 271 C-77.721875 270.94328125 -78.44375 270.8865625 -79.1875 270.828125 C-114.0534283 267.92263098 -144.77006571 251.96195978 -168 226 C-170.58225782 222.79256398 -172.84412011 219.50477742 -175 216 C-175.47179688 215.28457031 -175.94359375 214.56914062 -176.4296875 213.83203125 C-201.06373556 175.14991795 -205.6852564 124.46860121 -196.2746582 80.24731445 C-194.33705681 71.68065517 -192.22080729 63.18438016 -189 55 C-188.28070312 53.16308594 -188.28070312 53.16308594 -187.546875 51.2890625 C-181.21063433 35.71897982 -172.29843093 22.38804223 -161 10 C-160.29617188 9.20207031 -159.59234375 8.40414062 -158.8671875 7.58203125 C-119.24619409 -34.97664038 -43.88638801 -36.06974199 0 0 Z M-117.6796875 43.19921875 C-124.33798068 51.23624941 -129.05440356 60.01058598 -132 70 C-132.29777344 70.96679688 -132.59554688 71.93359375 -132.90234375 72.9296875 C-135.04351511 80.52739232 -135 85.46520166 -135 94 C-96.72 94 -58.44 94 -19 94 C-21.28870542 72.25729854 -25.28285373 52.19254253 -42 37 C-65.41321276 18.69192386 -97.50528767 21.82473405 -117.6796875 43.19921875 Z " fill="#005694" transform="translate(1360,157)"/>
<path d="M0 0 C20.80576722 17.73659348 30.47527386 41.78648329 32.73666096 68.78329492 C33.06603831 75.06188846 33.01930151 81.33742466 32.96972656 87.62231445 C32.96859446 89.67464679 32.96923899 91.72698073 32.97149658 93.77931213 C32.97263051 99.2780402 32.94933847 104.7764095 32.92120075 110.27505517 C32.89596358 116.04851919 32.89382769 121.82199409 32.88909912 127.59550476 C32.87673426 138.49591828 32.84400169 149.39616872 32.80370116 160.29651088 C32.75877987 172.71995484 32.73694552 185.14340715 32.71691942 197.56691229 C32.67526234 223.09289614 32.60199236 248.61865682 32.515625 274.14453125 C11.725625 274.14453125 -9.064375 274.14453125 -30.484375 274.14453125 C-30.50419434 269.07964355 -30.52401367 264.01475586 -30.54443359 258.79638672 C-30.61156523 241.9967161 -30.689105 225.19710516 -30.77190208 208.39750481 C-30.8218141 198.21944524 -30.86825756 188.04139287 -30.90625 177.86328125 C-30.93941136 168.98185001 -30.97937147 160.10047845 -31.02716506 151.21911347 C-31.0521928 146.52577727 -31.07404096 141.83247944 -31.08771896 137.13909531 C-28.80398031 90.02718724 -28.80398031 90.02718724 -47.484375 49.14453125 C-52.98505087 44.95396741 -58.63262381 42.12158602 -65.484375 41.14453125 C-66.34289063 41.01175781 -67.20140625 40.87898438 -68.0859375 40.7421875 C-92.18911926 37.85110505 -115.29954444 48.22034639 -134.50010967 62.04603672 C-137.484375 64.14453125 -137.484375 64.14453125 -140.39281178 65.8193121 C-144.15929729 68.26699032 -147.65131383 70.61203539 -149.11298919 75.05551076 C-150.15595895 80.85906852 -149.92405079 86.7456345 -149.82495117 92.61743164 C-149.83171692 94.59905121 -149.84331874 96.58065927 -149.859375 98.56222534 C-149.88918587 103.92395641 -149.8515764 109.28332258 -149.80163741 114.64482427 C-149.76092654 120.25427377 -149.78252141 125.8634795 -149.79743958 131.4730072 C-149.81623518 142.08724949 -149.77919175 152.70052923 -149.72196704 163.31460422 C-149.65952836 175.40168462 -149.65951938 187.48851457 -149.66469228 199.57572567 C-149.67393461 224.43233609 -149.60497909 249.28823561 -149.484375 274.14453125 C-157.68128061 274.16765835 -165.87817268 274.18544821 -174.07510281 274.19634342 C-177.88089077 274.20157145 -181.68665648 274.20866763 -185.49243164 274.2199707 C-189.16230044 274.23080245 -192.83214778 274.23680869 -196.50203133 274.23940849 C-197.90512492 274.24126222 -199.30821729 274.24488185 -200.7113018 274.25026131 C-202.6700718 274.25747544 -204.6288632 274.25793934 -206.58764648 274.25805664 C-207.70461411 274.26027725 -208.82158173 274.26249786 -209.97239685 274.26478577 C-212.484375 274.14453125 -212.484375 274.14453125 -213.484375 273.14453125 C-213.5820932 271.63899824 -213.6099299 270.12887912 -213.61021614 268.62017822 C-213.61282389 267.63648632 -213.61543164 266.65279442 -213.61811841 265.63929367 C-213.61588768 264.54564121 -213.61365696 263.45198875 -213.61135864 262.32519531 C-213.61291863 261.17348469 -213.61447862 260.02177406 -213.61608589 258.83516312 C-213.61939905 255.62409651 -213.61818678 252.41306729 -213.61509967 249.20200157 C-213.61284736 245.74456959 -213.61632433 242.28714287 -213.61907959 238.82971191 C-213.62353811 232.05096464 -213.62256046 225.2722284 -213.61966695 218.49348068 C-213.61741323 212.98674173 -213.61710025 207.48000588 -213.61819077 201.9732666 C-213.618344 201.19103894 -213.61849723 200.40881129 -213.61865511 199.60287976 C-213.61897482 198.01405303 -213.61929903 196.42522629 -213.6196277 194.83639956 C-213.62248273 179.92010308 -213.61919511 165.00381273 -213.61382733 150.08751726 C-213.60935927 137.2744876 -213.6101352 124.461467 -213.61474609 111.6484375 C-213.62009145 96.78737107 -213.62220804 81.92631002 -213.61913383 67.06524277 C-213.61881526 65.48209381 -213.61850089 63.89894486 -213.61819077 62.3157959 C-213.61803649 61.5367525 -213.61788221 60.75770911 -213.61772326 59.95505834 C-213.61685799 54.45168634 -213.6183212 48.94831775 -213.62067032 43.44494629 C-213.62346809 36.74283927 -213.62273054 30.04074397 -213.61738957 23.33863831 C-213.61475225 19.91580052 -213.61374802 16.49298231 -213.61703873 13.07014465 C-213.61974694 9.36803226 -213.61637314 5.66597595 -213.61135864 1.96386719 C-213.61358936 0.87021473 -213.61582009 -0.22343773 -213.61811841 -1.35023117 C-213.61551066 -2.33392307 -213.61290291 -3.31761497 -213.61021614 -4.33111572 C-213.61005379 -5.18684299 -213.60989144 -6.04257027 -213.60972416 -6.92422867 C-213.484375 -8.85546875 -213.484375 -8.85546875 -212.484375 -9.85546875 C-210.67382475 -9.94922928 -208.85960299 -9.97290985 -207.04663086 -9.96899414 C-205.30493874 -9.96888084 -205.30493874 -9.96888084 -203.52806091 -9.96876526 C-201.63278404 -9.96102333 -201.63278404 -9.96102333 -199.69921875 -9.953125 C-197.77028526 -9.95100258 -197.77028526 -9.95100258 -195.80238342 -9.94883728 C-192.37794057 -9.94501293 -188.95353991 -9.93518337 -185.52911377 -9.9241333 C-182.03699322 -9.91391739 -178.54486567 -9.90928457 -175.05273438 -9.90429688 C-168.19657728 -9.89409122 -161.34053615 -9.87451952 -154.484375 -9.85546875 C-154.484375 1.36453125 -154.484375 12.58453125 -154.484375 24.14453125 C-150.194375 20.84453125 -145.904375 17.54453125 -141.484375 14.14453125 C-138.39672373 12.03649625 -135.34056292 9.98954702 -132.171875 8.01953125 C-130.96241211 7.26506714 -130.96241211 7.26506714 -129.72851562 6.49536133 C-91.75663272 -16.85615164 -38.42308545 -30.08274505 0 0 Z " fill="#005694" transform="translate(1658.484375,148.85546875)"/>
<path d="M0 0 C4.58970166 4.36164195 6.87037423 7.69001943 7.20703125 14.1875 C7.19388202 15.5352959 7.17024365 16.8830257 7.13671875 18.23046875 C7.12769531 18.92333984 7.11867187 19.61621094 7.109375 20.33007812 C7.08598032 22.0261927 7.05011516 23.72212746 7.01171875 25.41796875 C7.78257813 25.65 8.5534375 25.88203125 9.34765625 26.12109375 C14.24620754 27.85490935 18.91596563 30.00255897 23.63671875 32.16796875 C24.62220703 32.6175293 25.60769531 33.06708984 26.62304688 33.53027344 C32.56491223 36.25411865 38.42150393 39.08970453 44.2421875 42.0625 C48.55671587 44.1741239 52.9866609 46.00146826 57.41015625 47.87109375 C67.62589664 52.25876533 77.61127609 57.17860991 87.63671875 61.98046875 C97.6560304 66.77712696 107.67880126 71.5306664 117.859375 75.9765625 C138.32184453 84.91332699 138.32184453 84.91332699 147.72973633 89.75927734 C157.15981238 94.52517311 166.8807806 98.72188806 176.52783203 103.02572632 C188.55351214 108.39357201 200.54024953 113.82446657 212.41015625 119.53125 C224.14391895 125.16336172 235.95704217 130.59954848 247.81399536 135.96588135 C256.74362248 140.00803722 265.64501385 144.09479498 274.48608398 148.328125 C283.25605037 152.51532346 292.13450062 156.46453461 301.01171875 160.41796875 C302.08697069 157.76568063 303.10628026 155.13428421 304.01171875 152.41796875 C304.67171875 152.41796875 305.33171875 152.41796875 306.01171875 152.41796875 C306.67171875 150.43796875 307.33171875 148.45796875 308.01171875 146.41796875 C308.67171875 146.41796875 309.33171875 146.41796875 310.01171875 146.41796875 C310.34171875 145.09796875 310.67171875 143.77796875 311.01171875 142.41796875 C311.67171875 142.41796875 312.33171875 142.41796875 313.01171875 142.41796875 C313.01171875 141.75796875 313.01171875 141.09796875 313.01171875 140.41796875 C313.67171875 140.41796875 314.33171875 140.41796875 315.01171875 140.41796875 C315.01171875 139.75796875 315.01171875 139.09796875 315.01171875 138.41796875 C315.67171875 138.41796875 316.33171875 138.41796875 317.01171875 138.41796875 C317.01171875 137.75796875 317.01171875 137.09796875 317.01171875 136.41796875 C317.67171875 136.41796875 318.33171875 136.41796875 319.01171875 136.41796875 C319.01171875 135.75796875 319.01171875 135.09796875 319.01171875 134.41796875 C319.67171875 134.41796875 320.33171875 134.41796875 321.01171875 134.41796875 C321.01171875 133.75796875 321.01171875 133.09796875 321.01171875 132.41796875 C321.67171875 132.08796875 322.33171875 131.75796875 323.01171875 131.41796875 C321.38487325 127.76409115 319.14480249 124.82201128 316.69921875 121.66796875 C316.26262939 121.10432617 315.82604004 120.54068359 315.3762207 119.95996094 C311.34882365 114.78922552 307.19942812 109.71984151 303.04614258 104.65014648 C299.05280308 99.75487816 295.19712016 94.76900669 291.38671875 89.73046875 C286.90878723 83.80996395 282.29265164 78.05406916 277.43701172 72.4387207 C275.46581446 70.1582792 273.68798157 67.93236298 272.01171875 65.41796875 C269.24895698 65.94065341 266.68563115 66.52666462 264.01171875 67.41796875 C255.45887444 68.55931115 248.90800804 66.64744273 242.01171875 61.41796875 C241.68171875 60.42796875 241.35171875 59.43796875 241.01171875 58.41796875 C240.35171875 57.75796875 239.69171875 57.09796875 239.01171875 56.41796875 C236.12479413 50.00258071 236.15198573 43.40174805 238.07421875 36.73046875 C241.44985609 30.95921781 245.48757365 26.40726733 252.01171875 24.41796875 C259.89611856 23.6164813 266.71063639 23.29833933 273.01171875 28.41796875 C279.10646656 34.54054646 280.30285767 38.85907964 280.41210938 47.56665039 C280.31321791 53.58085093 278.60136501 57.68732779 275.01171875 62.41796875 C276.11966797 63.79855469 276.11966797 63.79855469 277.25 65.20703125 C282.34766491 71.56576438 287.42987014 77.93468009 292.44921875 84.35546875 C297.04274628 90.22810024 301.73338189 96.01770493 306.44580078 101.79516602 C309.81318987 105.92823886 313.13450525 110.08954839 316.37890625 114.3203125 C319.02277131 117.71685684 321.76930479 121.03105695 324.5078125 124.3515625 C326.01171875 126.41796875 326.01171875 126.41796875 326.01171875 128.41796875 C326.9553125 127.82628906 327.89890625 127.23460937 328.87109375 126.625 C351.88775791 112.38605595 376.52867995 106.38975837 403.30078125 112.4453125 C418.00002827 116.29806251 430.6205667 123.42011464 442.01171875 133.41796875 C442.76066406 134.07152344 443.50960938 134.72507813 444.28125 135.3984375 C454.30548795 144.75556329 461.44889117 156.55229099 466.01171875 169.41796875 C466.305625 170.16046875 466.59953125 170.90296875 466.90234375 171.66796875 C474.48564817 191.89011386 472.43445166 216.82986014 464.01171875 236.41796875 C452.97070103 259.66446272 434.08019637 276.60045469 410.04296875 285.51953125 C407.70717267 286.23324672 405.38790313 286.85478219 403.01171875 287.41796875 C401.77164062 287.75441406 400.5315625 288.09085937 399.25390625 288.4375 C376.95730332 293.97277939 353.81776853 287.99703951 334.296875 276.80859375 C331.47200383 275.08952685 328.71738058 273.31924463 326.01171875 271.41796875 C325.66947266 272.21074219 325.66947266 272.21074219 325.3203125 273.01953125 C323.57613899 276.21631494 321.34505616 278.96247878 319.07421875 281.79296875 C318.07277635 283.05327394 317.07147816 284.31369372 316.0703125 285.57421875 C315.55968262 286.21488281 315.04905273 286.85554688 314.52294922 287.515625 C313.10578959 289.29955195 311.698785 291.09079446 310.296875 292.88671875 C304.89292754 299.8092539 299.40054053 306.65253554 293.84814453 313.45654297 C289.90006801 318.30249417 286.02387064 323.19948969 282.17797852 328.12670898 C278.65796515 332.62460995 275.06303563 337.05772988 271.44921875 341.48046875 C266.68414544 347.31716031 262.03725672 353.22645773 257.46484375 359.21484375 C250.00943983 368.97530009 242.32330959 378.55890878 234.640625 388.140625 C234.19485107 388.69903076 233.74907715 389.25743652 233.28979492 389.83276367 C232.09806157 391.31087727 230.88005161 392.767698 229.66015625 394.22265625 C227.79135866 396.23563527 227.79135866 396.23563527 228.07421875 398.48046875 C228.97796278 400.50604885 228.97796278 400.50604885 230.51171875 402.41796875 C234.11001897 407.21570238 233.45807961 413.69643411 233.01171875 419.41796875 C231.4514391 426.01537166 227.18976104 429.77332458 221.94921875 433.73046875 C216.39232239 436.70304431 209.61995967 436.43598664 203.671875 434.7578125 C197.85392465 432.17826062 193.62489985 427.76628966 190.875 422.05859375 C189.10062526 416.63109455 188.86855376 410.41080412 190.921875 405.03515625 C194.08676697 399.68231646 198.11995668 395.79812792 203.76171875 393.10546875 C211.56740634 391.45426561 217.75955263 392.19478381 225.01171875 395.41796875 C225.22957031 394.89976562 225.44742187 394.3815625 225.671875 393.84765625 C227.55579578 390.43133344 229.98549042 387.55771783 232.44921875 384.54296875 C233.54090089 383.1931419 234.63203482 381.84287152 235.72265625 380.4921875 C236.27405273 379.81075684 236.82544922 379.12932617 237.39355469 378.42724609 C239.81274437 375.42333373 242.19580562 372.39170416 244.57421875 369.35546875 C245.02482666 368.78119141 245.47543457 368.20691406 245.93969727 367.61523438 C248.19224805 364.74344364 250.44094192 361.86866767 252.6875 358.9921875 C257.52326724 352.80900645 262.41537965 346.68031303 267.38671875 340.60546875 C271.9378509 335.04229695 276.3578879 329.39622034 280.69921875 323.66796875 C285.17611658 317.76128328 289.77864966 312.02142009 294.5625 306.359375 C297.68286161 302.61195508 300.68322268 298.77870995 303.67602539 294.92919922 C306.24852856 291.63032618 308.86050498 288.37171407 311.52734375 285.1484375 C312.11733154 284.43333008 312.70731934 283.71822266 313.31518555 282.98144531 C314.46241366 281.59489953 315.61469856 280.21251764 316.77270508 278.83496094 C319.52788324 275.49941058 321.71236172 272.62272037 323.01171875 268.41796875 C322.30208984 267.85142578 322.30208984 267.85142578 321.578125 267.2734375 C312.57518974 259.77976624 305.66392858 251.19519855 301.01171875 240.41796875 C294.33268825 242.53528384 288.11121553 245.47890037 281.76171875 248.41796875 C280.56546875 248.96453125 279.36921875 249.51109375 278.13671875 250.07421875 C276.42742187 250.863125 276.42742187 250.863125 274.68359375 251.66796875 C273.64299805 252.1475 272.60240234 252.62703125 271.53027344 253.12109375 C268.92646785 254.2999238 268.92646785 254.2999238 267.01171875 256.41796875 C267.19734375 257.59359375 267.38296875 258.76921875 267.57421875 259.98046875 C268.44937609 265.95530837 266.8741024 270.72525284 263.4609375 275.66015625 C258.60794239 281.53540088 254.23409827 284.2671389 246.63671875 285.35546875 C239.96564921 285.77128067 236.03622874 284.06517568 231.0703125 279.71875 C226.4653779 274.97922441 223.77903547 270.02486464 223.01171875 263.41796875 C223.34879459 258.03259436 224.43602103 252.5703919 228.01171875 248.41796875 C236.09944006 242.35217777 241.74244674 240.18334841 252.01171875 241.41796875 C257.61882735 243.67700069 261.48259984 246.55272768 265.01171875 251.41796875 C265.76267822 251.07016357 266.5136377 250.7223584 267.28735352 250.36401367 C270.10307119 249.06049295 272.91919823 247.75786176 275.7355957 246.45581055 C277.54214179 245.62030397 279.34822363 244.78379382 281.15429688 243.94726562 C286.74422228 241.36368666 292.33074425 238.79546909 298.01171875 236.41796875 C297.81835938 235.87269531 297.625 235.32742188 297.42578125 234.765625 C295.56110444 229.36544712 294.14934595 224.01208599 293.01171875 218.41796875 C292.82480469 217.57878906 292.63789063 216.73960937 292.4453125 215.875 C292.26097656 215.02292969 292.07664062 214.17085937 291.88671875 213.29296875 C291.71914063 212.52726563 291.5515625 211.7615625 291.37890625 210.97265625 C290.92546027 207.81782996 291.01171875 204.60521556 291.01171875 201.41796875 C247.45171875 201.41796875 203.89171875 201.41796875 159.01171875 201.41796875 C158.68171875 203.72796875 158.35171875 206.03796875 158.01171875 208.41796875 C156.55859375 211.21875 156.55859375 211.21875 154.76171875 213.73046875 C154.1790625 214.57222656 153.59640625 215.41398438 152.99609375 216.28125 C150.74508587 218.70507148 149.13200895 219.410966 146.01171875 220.41796875 C145.19316406 220.79050781 144.37460938 221.16304687 143.53125 221.546875 C138.38931377 223.3246297 132.75363972 222.46496939 127.73046875 220.546875 C121.43408325 217.04753767 117.27137579 211.19693987 115.01171875 204.41796875 C113.97494089 197.26551393 115.36914853 192.52443199 119.3671875 186.55078125 C122.88357075 181.99034121 126.39960348 179.66510548 132.01171875 178.41796875 C139.16535386 177.69382777 145.12606193 178.01338531 151.01171875 182.41796875 C154.68083065 185.86644363 157.67751356 189.48140954 159.01171875 194.41796875 C159.01171875 195.73796875 159.01171875 197.05796875 159.01171875 198.41796875 C202.57171875 198.08796875 246.13171875 197.75796875 291.01171875 197.41796875 C291.34171875 193.12796875 291.67171875 188.83796875 292.01171875 184.41796875 C293.28276595 176.6101074 295.36418966 170.43244776 299.01171875 163.41796875 C298.1398291 163.14122314 297.26793945 162.86447754 296.36962891 162.5793457 C293.22741911 161.49257153 290.293931 160.24571881 287.28515625 158.8359375 C286.18558594 158.32289063 285.08601563 157.80984375 283.953125 157.28125 C282.77621094 156.72824219 281.59929687 156.17523438 280.38671875 155.60546875 C279.13818278 155.02178887 277.88948172 154.43846202 276.640625 153.85546875 C274.04851294 152.64508191 271.45711494 151.43318533 268.86621094 150.22021484 C262.92132798 147.43857008 256.96598997 144.67944315 251.01171875 141.91796875 C248.68093615 140.8360526 246.35020716 139.75402095 244.01953125 138.671875 C242.86485352 138.13578613 241.71017578 137.59969727 240.52050781 137.04736328 C236.99390114 135.40969469 233.46761546 133.77133671 229.94140625 132.1328125 C224.10237441 129.41977185 218.26225101 126.70909322 212.42138672 124 C210.17788866 122.95905288 207.93471542 121.91740535 205.69189453 120.875 C192.29933158 114.65166778 178.87234847 108.52376002 165.34350586 102.60131836 C160.24064429 100.3552727 155.2004879 98.04331927 150.2265625 95.5234375 C143.60398966 92.17100364 136.85967935 89.11732543 130.09277344 86.07080078 C126.41598804 84.41499105 122.74292512 82.75097825 119.0703125 81.0859375 C118.35487274 80.76160736 117.63943298 80.43727722 116.90231323 80.1031189 C111.74614833 77.76144693 106.61724265 75.36826173 101.51171875 72.91796875 C92.90323157 68.78937793 84.20834454 64.85628136 75.51171875 60.91796875 C58.01691571 52.99535542 58.01691571 52.99535542 49.51171875 48.91796875 C41.31157746 44.99713087 33.0616894 41.18559416 24.79711914 37.40283203 C23.28106688 36.70804898 21.76591834 36.01129036 20.25170898 35.3125 C18.12212592 34.33037533 15.98929221 33.35568309 13.85546875 32.3828125 C13.2094873 32.08330185 12.56350586 31.7837912 11.89794922 31.47520447 C9.07215543 30.19572728 7.15422581 29.41796875 4.01171875 29.41796875 C3.14546875 30.53171875 3.14546875 30.53171875 2.26171875 31.66796875 C-1.63191524 36.42685474 -5.83942179 38.48211954 -11.80078125 39.41796875 C-17.51438936 39.75661725 -22.13242074 38.43055111 -26.98828125 35.41796875 C-31.32803736 31.41750266 -34.78708167 27.78652074 -35.296875 21.78515625 C-35.82288907 8.34775101 -35.82288907 8.34775101 -32.36328125 3.60546875 C-23.6964771 -5.48957748 -10.30779438 -8.20168315 0 0 Z " fill="#9EA02D" transform="translate(34.98828125,46.58203125)"/>
<path d="M0 0 C0 27.72 0 55.44 0 84 C27.72 84 55.44 84 84 84 C85.31021589 87.93064768 84.38525519 89.60015885 83.0859375 93.51171875 C82.77076927 94.47388557 82.77076927 94.47388557 82.44923401 95.45549011 C81.76599391 97.53562406 81.07061969 99.61147689 80.375 101.6875 C79.90736098 103.10337369 79.44064484 104.51955253 78.97485352 105.93603516 C78.28490165 108.03365605 77.59431122 110.1310388 76.90022278 112.22729492 C74.78423408 118.62078429 72.79529032 125.04826037 70.83984375 131.4921875 C70 134 70 134 69 135 C66.85256451 135.09425595 64.70198974 135.11742648 62.55249023 135.11352539 C61.54277664 135.11374443 61.54277664 135.11374443 60.51266479 135.1139679 C58.27794216 135.11326878 56.0433019 135.10547652 53.80859375 135.09765625 C52.26302638 135.09579206 50.71745843 135.09436816 49.17189026 135.09336853 C45.09642923 135.0895434 41.02100363 135.07971317 36.94555664 135.06866455 C32.78988118 135.05845032 28.63420001 135.05387089 24.47851562 135.04882812 C16.31899413 135.03809089 8.15950147 135.02101454 0 135 C0.06063748 155.52386573 0.13820989 176.04760603 0.23571491 196.57133102 C0.2806014 206.10174196 0.32003243 215.63211611 0.34643555 225.16259766 C0.36947364 233.47336784 0.4029362 241.78402096 0.44870156 250.09469819 C0.47255567 254.49151207 0.49133547 258.88821057 0.49761391 263.28508759 C0.50370032 267.43181933 0.52382707 271.57825616 0.55427551 275.72487831 C0.56299914 277.2388459 0.56679023 278.75285212 0.56500816 280.2668438 C0.55555934 292.00856725 0.83115648 305.40468137 9.37890625 314.4609375 C15.84211488 320.29976305 23.12374603 320.60235688 31.44921875 320.37109375 C45.76821339 319.49696003 58.62725621 313.87753896 71 307 C72.74267533 308.74267533 72.54340945 311.13140605 72.89990234 313.47241211 C74.82630803 326.0047961 78.516085 340.08014949 86.7109375 350.08984375 C87.13632812 350.72019531 87.56171875 351.35054688 88 352 C86.77660681 355.67017958 85.31950277 356.16101676 81.98657227 357.85449219 C81.28975342 358.19125977 80.59293457 358.52802734 79.875 358.875 C79.1543335 359.22723633 78.43366699 359.57947266 77.69116211 359.94238281 C70.6426533 363.30373047 63.51693535 365.85340331 56 368 C55.36046387 368.18546387 54.72092773 368.37092773 54.06201172 368.56201172 C25.66694245 376.61161665 -6.71889417 377.10154539 -33.125 362.875 C-48.20752968 353.62252467 -57.50261081 339.22925114 -61.97615623 322.31828499 C-64.3143437 311.75033884 -63.66173993 300.67999961 -63.58032811 289.91761649 C-63.55847601 286.28530149 -63.56606076 282.65302276 -63.56983948 279.0206604 C-63.57244505 272.74679739 -63.55692868 266.47319693 -63.52865028 260.19939995 C-63.48779297 251.12889779 -63.4749705 242.05852093 -63.46871033 232.98793674 C-63.45780176 218.26703259 -63.42462153 203.54626797 -63.37719727 188.82543945 C-63.33121223 174.53638399 -63.29586426 160.2473666 -63.2746582 145.95825195 C-63.27334459 145.07558057 -63.27203097 144.19290918 -63.27067754 143.28349017 C-63.26415175 138.85482203 -63.25783336 134.42615363 -63.25161803 129.99748504 C-63.19989223 93.33155824 -63.11192138 56.66579004 -63 20 C-61.55613653 19.35085865 -60.11148025 18.70348049 -58.66648865 18.05685425 C-57.8620806 17.69615782 -57.05767256 17.33546139 -56.22888851 16.96383476 C-53.90316105 15.95812409 -51.60752186 15.1629695 -49.16015625 14.5078125 C-48.33386719 14.28077637 -47.50757813 14.05374023 -46.65625 13.81982422 C-45.8003125 13.59053223 -44.944375 13.36124023 -44.0625 13.125 C-37.14384213 11.21255539 -30.29762822 9.18221614 -23.5 6.875 C-22.4028064 6.5027832 -22.4028064 6.5027832 -21.28344727 6.12304688 C-20.57115967 5.88134766 -19.85887207 5.63964844 -19.125 5.390625 C-3.23527893 0 -3.23527893 0 0 0 Z " fill="#005694" transform="translate(641,55)"/>
<path d="M0 0 C0.00097681 0.74775175 0.00195362 1.49550349 0.00296003 2.26591438 C0.06123022 46.58235216 0.13502563 90.89874077 0.22898628 135.21511799 C0.24025446 140.53607126 0.25139291 145.8570248 0.26245117 151.17797852 C0.26465486 152.23728597 0.26685854 153.29659342 0.269129 154.38800109 C0.30450276 171.54084132 0.32936646 188.6936815 0.35034702 205.84654468 C0.37210843 223.44656047 0.40516211 241.04652893 0.44870156 258.64650446 C0.47521237 269.50689015 0.49291196 280.36721686 0.49934604 291.2276333 C0.50460165 298.6747147 0.5208245 306.12172187 0.54566566 313.56876349 C0.55967465 317.86550502 0.56885369 322.16211368 0.56500816 326.45887947 C0.56159198 330.39531382 0.57199693 334.33146463 0.59323552 338.26784093 C0.59849347 339.68924707 0.59874876 341.11068273 0.59339563 342.53208851 C0.37827558 355.43634611 0.37827558 355.43634611 6.25 366.4375 C15.60204291 371.75116075 24.53855956 369.40264918 34.5546875 367.40234375 C37 367 37 367 41 367 C41.47308594 368.00417969 41.94617187 369.00835937 42.43359375 370.04296875 C48.55696376 382.80770727 55.65022533 393.99975344 65.54614258 404.21972656 C69 407.80773238 69 407.80773238 69 410 C69.66 410 70.32 410 71 410 C71 410.99 71 411.98 71 413 C41.81296986 427.76578253 2.57549612 432.63620684 -28.85595703 422.74414062 C-42.35309986 418.05963922 -52.08525204 408.72548008 -58.4765625 396.078125 C-64.87574589 381.63318473 -65.15517354 366.2618754 -65.12025452 350.69355774 C-65.12069141 349.27338221 -65.12156849 347.85320676 -65.12284368 346.43303174 C-65.12506545 342.55853587 -65.12109933 338.68406798 -65.11606562 334.80957568 C-65.1117278 330.62090919 -65.1132099 326.43224415 -65.1139679 322.24357605 C-65.11449102 314.99570152 -65.11136629 307.74783602 -65.10573006 300.49996376 C-65.09758643 290.02089049 -65.0949969 279.54182157 -65.09374207 269.06274547 C-65.09155604 252.05916183 -65.08490815 235.05558299 -65.07543945 218.05200195 C-65.0662537 201.53930688 -65.05917856 185.02661312 -65.05493164 168.51391602 C-65.05466892 167.49525349 -65.05440619 166.47659096 -65.05413551 165.42705987 C-65.05283043 160.31648448 -65.05156673 155.20590909 -65.05032361 150.0953337 C-65.03996499 107.73021913 -65.02235891 65.36510982 -65 23 C-63.7512219 22.36202582 -62.50081544 21.72723853 -61.24975586 21.09375 C-60.55361679 20.73990234 -59.85747772 20.38605469 -59.14024353 20.02148438 C-55.71291344 18.38570598 -52.1598949 17.20257302 -48.5625 16 C-41.84168592 13.70983249 -35.1566508 11.33805588 -28.49609375 8.87890625 C-27.75662003 8.60662201 -27.0171463 8.33433777 -26.25526428 8.05380249 C-23.25704609 6.94965456 -20.25891872 5.845461 -17.26516724 4.72924805 C-15.14759057 3.94008977 -13.02723443 3.15885046 -10.90625 2.37890625 C-9.67197266 1.9207251 -8.43769531 1.46254395 -7.16601562 0.99047852 C-4 0 -4 0 0 0 Z " fill="#005694" transform="translate(1095,0)"/>
<path d="M0 0 C4.73926714 3.54667256 7.93186097 7.70865912 9.78515625 13.3359375 C10.70890236 20.52182294 9.93995633 26.34974527 5.78515625 32.3359375 C2.02956093 37.05725733 -2.41428007 39.80286735 -8.21484375 41.3359375 C-14.6035502 41.79941407 -20.15667811 40.70788739 -25.42578125 37 C-30.69965419 32.09460726 -34.2690928 26.00875089 -34.65234375 18.7734375 C-34.58751423 11.39367671 -30.80804567 5.92913942 -25.71484375 0.8359375 C-17.87582041 -3.86747651 -8.06099381 -4.66776233 0 0 Z " fill="#C2CE20" transform="translate(184.21484375,227.6640625)"/>
<path d="M0 0 C5.51207656 1.98376195 9.74028979 4.74340912 12.5 10 C13.02455109 11.32386704 13.52691735 12.65688028 14 14 C14.680625 15.423125 14.680625 15.423125 15.375 16.875 C16.55246156 22.76230778 15.01619365 28.07649059 12.25 33.3125 C7.41183292 39.09142179 2.36753998 42.9826596 -5.25 43.875 C-10.88299966 44.27200662 -14.51347457 43.44314742 -19 40 C-24.65555203 35.04996955 -28.12369464 29.54533056 -29 22 C-28.66292416 16.61462561 -27.57569772 11.15242315 -24 7 C-15.89002229 0.91751672 -10.28877956 -1.19206332 0 0 Z " fill="#C2CE21" transform="translate(287,288)"/>
<path d="M0 0 C4.33603675 3.52302986 8.20687522 7.05812565 10 12.4375 C10.65487953 20.32412057 11.18968843 27.45360794 6.38671875 34.1171875 C5 35.4375 5 35.4375 2 36.4375 C1.54625 36.911875 1.0925 37.38625 0.625 37.875 C-3.4360895 41.77989375 -8.64310928 41.97459348 -14 41.89453125 C-19.25287038 41.09428928 -23.78888995 38.63079563 -28 35.4375 C-28.495 33.9525 -28.495 33.9525 -29 32.4375 C-29.66 31.7775 -30.32 31.1175 -31 30.4375 C-33.88692462 24.02211196 -33.85973302 17.4212793 -31.9375 10.75 C-25.47083201 -0.30591624 -12.40297305 -6.47958009 0 0 Z " fill="#C2CE21" transform="translate(305,72.5625)"/>
<path d="M0 0 C0 0.66 0 1.32 0 2 C0.5775 2.226875 1.155 2.45375 1.75 2.6875 C5.03310575 4.60264502 7.40364104 7.17194541 8.59765625 10.83203125 C9.92563912 17.98766713 9.66886062 24.67437824 6 31 C1.92278021 35.87001253 -2.4686734 39.51845546 -8.8359375 40.38671875 C-15.38216728 40.62581278 -20.70705675 40.04059507 -26 36 C-30.54620102 31.717641 -33.54323702 27.48582276 -34.37109375 21.16796875 C-34.55224569 13.03744348 -33.14975294 8.35000911 -27.54296875 2.47265625 C-19.59008292 -4.76677808 -9.14797211 -4.77285501 0 0 Z " fill="#C2CE21" transform="translate(259,442)"/>
<path d="M0 0 C5.48049171 5.20816914 7.30791243 9.5252318 7.51171875 17.16796875 C7.39465333 24.15531089 5.94645926 28.45159529 1.01171875 33.41796875 C-3.57624939 37.48635931 -8.28371213 39.30451451 -14.40625 39.60546875 C-21.35545061 39.10083694 -26.4386337 36.46045651 -31.05078125 31.29296875 C-36.10361476 24.99178814 -35.73849197 18.22216188 -35.26220703 10.41552734 C-34.44935119 4.48791015 -30.33022153 1.48604366 -25.92578125 -2.01953125 C-17.68862845 -6.40099551 -7.3654231 -5.86050364 0 0 Z " fill="#C2CE21" transform="translate(34.98828125,46.58203125)"/>
<path d="M0 0 C10.35354744 4.60404795 20.66190477 9.27867043 30.875 14.1875 C37.76066763 17.49480898 44.67431988 20.6293189 51.71484375 23.59375 C61.82829709 27.92293336 71.70525645 32.81126757 81.625 37.5625 C91.64431165 42.35915821 101.66708251 47.11269765 111.84765625 51.55859375 C132.31012578 60.49535824 132.31012578 60.49535824 141.71801758 65.34130859 C151.14809363 70.10720436 160.86906185 74.30391931 170.51611328 78.60775757 C182.54179339 83.97560326 194.52853078 89.40649782 206.3984375 95.11328125 C218.1322002 100.74539297 229.94532342 106.18157973 241.80227661 111.5479126 C250.73190373 115.59006847 259.6332951 119.67682623 268.47436523 123.91015625 C277.24433162 128.09735471 286.12278187 132.04656586 295 136 C295 136.99 295 137.98 295 139 C290.48992779 138.42897685 286.93365213 137.24768729 282.8359375 135.296875 C281.64597168 134.73540771 280.45600586 134.17394043 279.22998047 133.59545898 C277.94496679 132.98034817 276.65997385 132.36519402 275.375 131.75 C274.03180116 131.113844 272.68820718 130.47852167 271.34423828 129.84399414 C268.57841421 128.53763319 265.81411285 127.22812826 263.05078125 125.91650391 C257.00937796 123.0531529 250.94191282 120.24633577 244.875 117.4375 C242.56241991 116.36475598 240.24991999 115.2918391 237.9375 114.21875 C236.79539062 113.68894531 235.65328125 113.15914063 234.4765625 112.61328125 C230.96303993 110.98284886 227.45017043 109.35101739 223.9375 107.71875 C218.09590491 105.00431863 212.25317267 102.29234913 206.40966797 99.58203125 C204.16616991 98.54108413 201.92299667 97.4994366 199.68017578 96.45703125 C186.28761283 90.23369903 172.86062972 84.10579127 159.33178711 78.18334961 C154.22892554 75.93730395 149.18876915 73.62535052 144.21484375 71.10546875 C137.59227091 67.75303489 130.8479606 64.69935668 124.08105469 61.65283203 C120.40426929 59.9970223 116.73120637 58.3330095 113.05859375 56.66796875 C112.34315399 56.34363861 111.62771423 56.01930847 110.89059448 55.68515015 C105.73442958 53.34347818 100.6055239 50.95029298 95.5 48.5 C86.89151282 44.37140918 78.19662579 40.43831261 69.5 36.5 C60.1071997 32.24642111 50.73286842 27.96972375 41.43579102 23.50976562 C31.67107747 18.85084893 21.79617226 14.42708015 11.94140625 9.96289062 C11.23464249 9.64267944 10.52787872 9.32246826 9.79969788 8.99255371 C8.45765031 8.38475579 7.11540401 7.77739642 5.77293396 7.17053223 C1.21714081 5.10857041 1.21714081 5.10857041 -1 4 C-0.67 2.68 -0.34 1.36 0 0 Z " fill="#015694" transform="translate(41,71)"/>
<path d="M0 0 C0.99 0.33 1.98 0.66 3 1 C1.44223046 6.06275099 -1.65171394 9.52104362 -5 13.5 C-6.18888677 14.93635328 -7.37637255 16.37386725 -8.5625 17.8125 C-9.14902344 18.52277344 -9.73554688 19.23304688 -10.33984375 19.96484375 C-12.62358679 22.76444404 -14.81379899 25.62341972 -17 28.5 C-21.26207899 34.08836614 -25.66639299 39.54628513 -30.11328125 44.98828125 C-33.6233603 49.28936403 -37.08425676 53.62369623 -40.5 58 C-44.45913692 63.07250827 -48.49107601 68.07972258 -52.5625 73.0625 C-57.32757331 78.89919156 -61.97446203 84.80848898 -66.546875 90.796875 C-69.12919319 94.17759108 -71.74674989 97.52991195 -74.375 100.875 C-74.82584961 101.44887451 -75.27669922 102.02274902 -75.74121094 102.61401367 C-78.20788231 105.74609445 -80.68997735 108.8651152 -83.1875 111.97265625 C-83.71939941 112.63475098 -84.25129883 113.2968457 -84.79931641 113.97900391 C-85.81536023 115.24189569 -86.83313594 116.50339701 -87.85302734 117.76318359 C-91.0569336 121.74245939 -94.0633037 125.81921236 -97 130 C-97.99 129.67 -98.98 129.34 -100 129 C-98.55162718 124.61487123 -96.31769767 121.72921813 -93.3125 118.25 C-89.0435671 113.28396298 -84.9948872 108.18903191 -81 103 C-73.66218341 93.50476388 -66.28327331 84.05629376 -58.68945312 74.76391602 C-53.36846639 68.24668181 -48.17674761 61.63199731 -43 55 C-37.23268872 47.61142406 -31.42418224 40.26372941 -25.5 33 C-16.70539976 22.20975698 -8.07780573 11.34133183 0 0 Z " fill="#015694" transform="translate(359,315)"/>
<path d="M0 0 C44.22 0 88.44 0 134 0 C134 1.65 134 3.3 134 5 C133.67 4.34 133.34 3.68 133 3 C89.11 3 45.22 3 0 3 C0 2.01 0 1.02 0 0 Z " fill="#005694" transform="translate(193,245)"/>
<path d="M0 0 C3.16061292 1.35769823 4.85118982 2.73046154 6.8828125 5.4921875 C7.40504395 6.19110107 7.92727539 6.89001465 8.46533203 7.61010742 C9.01302246 8.35752197 9.56071289 9.10493652 10.125 9.875 C11.28960137 11.43253598 12.45628234 12.98851909 13.625 14.54296875 C14.19863281 15.30657715 14.77226562 16.07018555 15.36328125 16.85693359 C18.29201738 20.69172562 21.41721101 24.3498731 24.53125 28.03515625 C28.25590025 32.50827261 31.82489302 37.09952227 35.40625 41.6875 C37.61931937 44.52178183 39.86550019 47.32752404 42.125 50.125 C45.13182173 53.88040805 48.08712536 57.67148697 51 61.5 C51.763125 62.5003125 52.52625 63.500625 53.3125 64.53125 C55 67 55 67 55 69 C51.6380453 68.43554479 50.25051552 67.55832631 48.15234375 64.89453125 C47.63534912 64.24798584 47.11835449 63.60144043 46.58569336 62.93530273 C46.04178955 62.23477783 45.49788574 61.53425293 44.9375 60.8125 C44.36459229 60.09070557 43.79168457 59.36891113 43.20141602 58.62524414 C41.45794411 56.4242466 39.72795564 54.21318969 38 52 C37.04230603 50.78335062 36.08401645 49.56716972 35.125 48.3515625 C33.33138208 46.07514682 31.54307616 43.79469031 29.7578125 41.51171875 C25.33280754 35.86321747 20.83384245 30.27344125 16.34423828 24.67626953 C13.85530598 21.57256281 11.36901239 18.46680402 8.89453125 15.3515625 C7.51703803 13.64176679 6.11521887 11.95148178 4.69921875 10.2734375 C3.57966797 8.93152344 3.57966797 8.93152344 2.4375 7.5625 C1.75558594 6.75941406 1.07367188 5.95632812 0.37109375 5.12890625 C-0.08136719 4.42636719 -0.53382813 3.72382812 -1 3 C-0.67 2.01 -0.34 1.02 0 0 Z " fill="#015694" transform="translate(307,108)"/>
<path d="M0 0 C0 0.99 0 1.98 0 3 C-7.53619184 6.57813355 -7.53619184 6.57813355 -11.15625 8.28662109 C-15.28054516 10.23309844 -19.39891324 12.18840162 -23.49609375 14.19140625 C-24.17534912 14.51939209 -24.85460449 14.84737793 -25.55444336 15.18530273 C-26.82858666 15.80070963 -28.09912099 16.42365879 -29.36547852 17.05493164 C-33.66151343 19.11282886 -33.66151343 19.11282886 -37 18 C-36 15 -36 15 -33.61083984 13.60546875 C-32.57137207 13.13753906 -31.5319043 12.66960937 -30.4609375 12.1875 C-28.75357422 11.41019531 -28.75357422 11.41019531 -27.01171875 10.6171875 C-25.21154297 9.81667969 -25.21154297 9.81667969 -23.375 9 C-22.19808594 8.46632813 -21.02117187 7.93265625 -19.80859375 7.3828125 C-16.54538486 5.90721073 -13.27405682 4.45133084 -10 3 C-9.24364258 2.65582031 -8.48728516 2.31164062 -7.70800781 1.95703125 C-4.92557651 0.70998681 -3.09371762 0 0 0 Z " fill="#035792" transform="translate(336,283)"/>
<path d="M0 0 C4.67105792 1.55701931 8.08705685 4.08447373 12 7 C11.34 7.66 10.68 8.32 10 9 C8.3278148 7.88321917 6.66237197 6.75633648 5 5.625 C3.6078125 4.68527344 3.6078125 4.68527344 2.1875 3.7265625 C1.465625 3.15679687 0.74375 2.58703125 0 2 C0 1.34 0 0.68 0 0 Z " fill="#85850F" transform="translate(459,168)"/>
<path d="" fill="#2A6882" transform="translate(0,0)"/>
</svg>
